<svg xmlns="http://www.w3.org/2000/svg" width="24" height="22" viewBox="0 0 24 22" fill="none">
<path fill-rule="evenodd" clip-rule="evenodd" d="M2.53048 0.713127C2.3629 0.749268 2.02587 0.877611 1.78151 0.998408C1.15433 1.30844 0.666544 1.79636 0.357075 2.42313C-0.023456 3.1938 -0.00456533 2.82203 0.00987217 9.25633L0.022669 14.9612L0.155044 15.3362C0.317325 15.796 0.489638 16.1024 0.770935 16.4312C1.41758 17.187 2.18098 17.555 3.19226 17.5985L3.73686 17.622L3.76029 18.1666C3.79578 18.9914 4.02861 19.6057 4.52614 20.1873C4.96222 20.697 5.50311 21.0482 6.16329 21.2501C6.43109 21.332 6.8007 21.3362 13.8977 21.3362H21.3508L21.7154 21.2118C22.7344 20.8643 23.5095 20.0885 23.8495 19.0758C23.9692 18.7193 23.9723 18.6784 23.9891 17.2493C24.0051 15.8827 24.0003 15.7743 23.9154 15.5852C23.8409 15.4194 21.589 12.7228 19.6023 10.4204C19.1704 9.9198 18.9629 9.78428 18.626 9.7825C18.434 9.78147 18.1843 9.86594 18.0425 9.97989C18.0019 10.0126 17.0127 11.1783 15.8442 12.5705C14.6757 13.9627 13.7042 15.1193 13.6855 15.1406C13.6667 15.1619 13.1712 14.5953 12.5843 13.8814C11.4323 12.4801 11.3529 12.4096 10.9242 12.4075C10.4854 12.4053 10.4971 12.3937 7.9857 15.3323L5.64767 18.0681L5.63553 12.7646C5.62156 6.67225 5.59025 7.13885 6.04372 6.68533C6.50309 6.22596 5.79073 6.2628 13.9445 6.27691L21.0695 6.28928L21.2875 6.39002C21.566 6.51878 21.8713 6.82403 22.0001 7.10261C22.097 7.31242 22.1017 7.39755 22.1242 9.39081L22.1477 11.4611L22.2883 11.6606C22.7022 12.2481 23.5567 12.1988 23.8895 11.5682L23.998 11.3628L24.0109 13.0448C24.0181 13.9699 24.024 12.1744 24.0241 9.05491C24.0242 5.93538 24.0133 4.25842 24 5.32835C23.9864 6.41917 23.9607 7.17583 23.9415 7.051C23.8928 6.73413 23.6711 6.18831 23.4652 5.8781C22.8389 4.93455 21.8209 4.39399 20.6658 4.39164L20.2621 4.39085L20.2384 3.84006C20.2199 3.40947 20.1871 3.20744 20.0879 2.91428C19.7397 1.88458 19.0233 1.16636 17.9758 0.796658L17.6008 0.664283L10.218 0.655846C4.03962 0.648815 2.78548 0.658143 2.53048 0.713127ZM2.78829 2.59839C2.62522 2.65225 2.47479 2.75481 2.29372 2.93566C1.83875 3.39011 1.87086 2.89825 1.8852 9.19581L1.89767 14.6799L1.9984 14.8978C2.05381 15.0177 2.18778 15.2044 2.29611 15.3127C2.57768 15.5943 2.84661 15.7007 3.33908 15.7255L3.74923 15.7461L3.75003 11.5098C3.75097 6.73136 3.73831 6.92017 4.10712 6.17313C4.41664 5.54603 4.90442 5.05825 5.53151 4.74874C6.29347 4.37261 5.90295 4.39258 12.5089 4.39164L18.3857 4.39085L18.3651 3.98069C18.3403 3.48822 18.2339 3.2193 17.9524 2.93772C17.844 2.82939 17.6573 2.69542 17.5375 2.64002L17.3195 2.53928L10.1711 2.53014C3.63767 2.5218 3.00251 2.52766 2.78829 2.59839ZM0.021919 9.10178C0.021919 12.2213 0.027544 13.5044 0.0343878 11.953C0.0412315 10.4017 0.0412315 7.84938 0.0343878 6.28117C0.027544 4.71297 0.021919 5.98225 0.021919 9.10178ZM9.17492 8.34546C8.91265 8.44338 8.68887 8.63294 8.54323 8.88072C8.43209 9.06977 8.41329 9.1532 8.41329 9.457C8.41329 9.77045 8.42998 9.83941 8.55528 10.0429C9.01582 10.7912 10.0813 10.8115 10.5448 10.0807C11.0191 9.33274 10.5264 8.35567 9.64625 8.29891C9.46254 8.28705 9.28428 8.30467 9.17492 8.34546ZM16.5235 14.6849C15.3649 16.0653 14.3384 17.2656 14.2426 17.3522C14.0837 17.4958 13.8178 17.6091 13.6399 17.6091C13.4812 17.6091 13.212 17.5048 13.0767 17.3909C12.9973 17.3241 12.4878 16.729 11.9442 16.0685C11.4007 15.4079 10.9398 14.8611 10.9199 14.8533C10.9 14.8456 9.99457 15.8792 8.90792 17.1502L6.93214 19.4612L13.8602 19.4753C18.7529 19.4853 20.8588 19.4744 21.0284 19.4381C21.3393 19.3717 21.6617 19.1649 21.8415 18.9167C22.0864 18.5785 22.1242 18.3586 22.1242 17.2707V16.2925L20.4067 14.2675C19.4621 13.1537 18.6759 12.2272 18.6597 12.2087C18.6435 12.1901 17.6822 13.3044 16.5235 14.6849Z" fill="black"/>
</svg>