<svg width="19" height="21" viewBox="0 0 19 21" fill="none" xmlns="http://www.w3.org/2000/svg">
<path d="M19 9.49095C18.9981 7.49944 18.3704 5.55888 17.2056 3.94354C16.0407 2.3282 14.3977 1.11977 12.5087 0.489035C10.6197 -0.141696 8.58029 -0.162829 6.67863 0.428623C4.77697 1.02007 3.10927 2.1942 1.91123 3.78506C0.713188 5.37591 0.0453962 7.30305 0.00223263 9.29409C-0.040931 11.2851 0.542717 13.2394 1.67069 14.8807C2.79866 16.522 4.41391 17.7673 6.28815 18.4406C8.16239 19.1139 10.2008 19.1812 12.1154 18.6329L12.1372 18.6263L16.8414 20.2794C16.9149 20.3054 16.9923 20.3186 17.0702 20.3186H17.0775C17.208 20.3181 17.3357 20.2804 17.4457 20.2101C17.5557 20.1398 17.6435 20.0397 17.6988 19.9214C17.7541 19.8032 17.7747 19.6717 17.7582 19.5422C17.7417 19.4127 17.6887 19.2905 17.6055 19.19L15.8791 16.5361C16.8637 15.6458 17.6503 14.5587 18.1879 13.345C18.7256 12.1314 19.0022 10.8183 19 9.49095ZM14.3931 16.7757L15.3896 18.309L12.3812 17.2522C12.243 17.2035 12.0929 17.2002 11.9527 17.2427L11.7261 17.3117C9.79067 17.8663 7.71834 17.6834 5.90994 16.7985C4.10155 15.9135 2.68558 14.3894 1.9359 12.5208C1.18622 10.6523 1.15611 8.57214 1.85138 6.68269C2.54666 4.79324 3.91791 3.22875 5.69993 2.29182C7.48196 1.35489 9.54812 1.11209 11.4988 1.61039C13.4495 2.10869 15.1461 3.31267 16.2604 4.98947C17.3747 6.66628 17.8277 8.69675 17.5316 10.6882C17.2355 12.6796 16.2114 14.4905 14.6574 15.7705L14.5456 15.8584C14.4103 15.9647 14.3196 16.1177 14.2913 16.2875C14.2631 16.4572 14.2994 16.6314 14.3931 16.7757Z" fill="black"/>
</svg>
