
<svg width="70" height="70" viewBox="0 0 70 70" fill="none" xmlns="http://www.w3.org/2000/svg"><circle cx="35" cy="35" r="32.2" stroke="#6D75F3" stroke-width="5.6"></circle><path d="M39.7775 45.7157C45.0175 33.7707 40.7889 23.5321 35.5479 15C30.1671 23.5321 24.928 32.0643 30.1655 45.7157M39.7775 45.7157H38.1678M39.7775 45.7157H35.1098H30.1655M39.7775 45.7157L40.655 50.0193M30.1655 45.7157H32.0519M30.1655 45.7157L29.4307 50.0193M29.4307 50.0193V55.1667H40.655V50.0193M29.4307 50.0193H40.655M38.1678 38.89V45.7157M38.1678 45.7157H32.0519M32.0519 38.89V45.7157M34.3007 39.415H35.8758" stroke="#6D75F3" stroke-width="2.6"></path><path d="M34.3017 42.5663H35.8769M34.3017 36.2656H35.8769M37.452 36.2656H39.0272M31.1514 36.2656H32.7265" stroke="#6D75F3" stroke-width="2.6"></path></svg>