<svg width="26" height="25" viewBox="0 0 26 25" fill="none" xmlns="http://www.w3.org/2000/svg">
<path d="M0.815935 14.773C1.76694 18 4.50794 24.581 9.13994 23.99C13.7719 23.399 11.9719 17.451 16.2239 16.636C18.0959 16.277 19.3649 19.493 21.2409 19.393C23.6579 19.264 24.8879 16.893 25.5629 14.893C26.9949 10.66 24.8509 3.48304 19.8319 2.24004C15.4519 1.15504 14.9399 6.46704 11.1319 4.92404C8.99193 4.05704 9.20594 1.46704 6.59894 0.945041C-1.28607 -0.634959 -0.449065 10.48 0.815935 14.773Z" fill="white"/>
<path opacity="0.1" d="M17.9499 23.7199H8.39988C7.99738 23.7207 7.61105 23.5615 7.32597 23.2773C7.04088 22.9932 6.88041 22.6074 6.87988 22.2049V2.97887C6.88154 2.14089 7.5619 1.46276 8.39988 1.46387H17.9499C18.7879 1.46276 19.4682 2.14089 19.4699 2.97887V22.1999C19.4707 22.6032 19.3108 22.9903 19.0256 23.2756C18.7403 23.5608 18.3533 23.7207 17.9499 23.7199Z" fill="#2626BC"/>
<path d="M17.9499 22.508H8.39988C7.99738 22.5088 7.61105 22.3496 7.32597 22.0654C7.04088 21.7813 6.88041 21.3955 6.87988 20.993V1.76795C6.88041 1.36536 7.04085 0.979457 7.32591 0.695152C7.61096 0.410847 7.99728 0.251424 8.39988 0.251954H17.9499C18.3525 0.251424 18.7388 0.410847 19.0239 0.695152C19.3089 0.979457 19.4694 1.36536 19.4699 1.76795V20.993C19.4694 21.3955 19.3089 21.7813 19.0238 22.0654C18.7387 22.3496 18.3524 22.5088 17.9499 22.508Z" fill="#6583FE"/>
<path d="M6.88086 2.41895H19.4689V20.3409H6.88086V2.41895Z" fill="#2D58E0"/>
<path d="M12.3253 9.00024H9.7443C9.61011 9.0005 9.4813 8.94744 9.38622 8.85274C9.29113 8.75803 9.23757 8.62944 9.2373 8.49524V6.12024C9.23757 5.98604 9.29113 5.85744 9.38622 5.76273C9.4813 5.66803 9.61011 5.61497 9.7443 5.61524H12.3253C12.4595 5.61497 12.5883 5.66803 12.6834 5.76273C12.7785 5.85744 12.832 5.98604 12.8323 6.12024V8.49424C12.8323 8.62861 12.7789 8.75746 12.6837 8.85239C12.5886 8.94731 12.4597 9.0005 12.3253 9.00024Z" fill="#1F50C9"/>
<path d="M16.628 8.98484H14.047C13.7695 8.98541 13.5433 8.76234 13.54 8.48484V6.11084C13.5433 5.83334 13.7695 5.61027 14.047 5.61084H16.628C16.9056 5.61027 17.1317 5.83334 17.135 6.11084V8.48484C17.1317 8.76234 16.9056 8.98541 16.628 8.98484Z" fill="#1F50C9"/>
<path d="M19.4554 5.6001V8.9841H18.3634C18.0859 8.98467 17.8597 8.7616 17.8564 8.4841V6.1101C17.8597 5.8326 18.0859 5.60953 18.3634 5.6101L19.4554 5.6001Z" fill="#1F50C9"/>
<path d="M15.8998 3.5H10.4468C10.3499 3.48772 10.2547 3.53251 10.2023 3.61494C10.15 3.69738 10.15 3.80262 10.2023 3.88506C10.2547 3.96749 10.3499 4.01228 10.4468 4H15.8998C15.9966 4.01228 16.0919 3.96749 16.1442 3.88506C16.1965 3.80262 16.1965 3.69738 16.1442 3.61494C16.0919 3.53251 15.9966 3.48772 15.8998 3.5Z" fill="white"/>
<path d="M12.3253 8.46896H9.7443C9.61011 8.46923 9.4813 8.41617 9.38622 8.32147C9.29113 8.22676 9.23757 8.09816 9.2373 7.96396V5.58996C9.23757 5.45576 9.29113 5.32716 9.38622 5.23246C9.4813 5.13775 9.61011 5.0847 9.7443 5.08496H12.3253C12.4595 5.0847 12.5883 5.13775 12.6834 5.23246C12.7785 5.32716 12.832 5.45576 12.8323 5.58996V7.96396C12.832 8.09816 12.7785 8.22676 12.6834 8.32147C12.5883 8.41617 12.4595 8.46923 12.3253 8.46896Z" fill="#FF7EB8"/>
<path d="M11.7856 7.414H10.7386C10.6446 7.40809 10.5551 7.45488 10.5063 7.53544C10.4575 7.616 10.4575 7.717 10.5063 7.79757C10.5551 7.87813 10.6446 7.92492 10.7386 7.919H11.7866C11.8806 7.92492 11.9701 7.87813 12.0189 7.79757C12.0677 7.717 12.0677 7.616 12.0189 7.53544C11.9701 7.45488 11.8806 7.40809 11.7866 7.414H11.7856Z" fill="white"/>
<path d="M11.7856 6.58881H11.4996C11.4056 6.58289 11.316 6.62968 11.2673 6.71024C11.2185 6.79081 11.2185 6.89181 11.2673 6.97237C11.316 7.05294 11.4056 7.09973 11.4996 7.09381H11.7876C11.8816 7.09973 11.9711 7.05294 12.0199 6.97237C12.0687 6.89181 12.0687 6.79081 12.0199 6.71024C11.9711 6.62968 11.8816 6.58289 11.7876 6.58881H11.7856Z" fill="white"/>
<path d="M16.6271 8.45383H14.0461C13.9119 8.45409 13.7831 8.40103 13.688 8.30633C13.5929 8.21162 13.5393 8.08302 13.5391 7.94883V5.57483C13.5393 5.44063 13.5929 5.31203 13.688 5.21732C13.7831 5.12262 13.9119 5.06956 14.0461 5.06983H16.6271C16.7613 5.06956 16.8901 5.12262 16.9852 5.21732C17.0802 5.31203 17.1338 5.44063 17.1341 5.57483V7.94883C17.1338 8.08302 17.0802 8.21162 16.9852 8.30633C16.8901 8.40103 16.7613 8.45409 16.6271 8.45383Z" fill="#02FFB3"/>
<path d="M16.0894 7.39984H15.0414C14.9474 7.39393 14.8578 7.44072 14.8091 7.52128C14.7603 7.60184 14.7603 7.70284 14.8091 7.78341C14.8578 7.86397 14.9474 7.91076 15.0414 7.90484H16.0894C16.1834 7.91076 16.2729 7.86397 16.3217 7.78341C16.3705 7.70284 16.3705 7.60184 16.3217 7.52128C16.2729 7.44072 16.1834 7.39393 16.0894 7.39984Z" fill="white"/>
<path d="M16.0893 6.57416H15.8003C15.7063 6.56824 15.6168 6.61503 15.568 6.6956C15.5192 6.77616 15.5192 6.87716 15.568 6.95772C15.6168 7.03829 15.7063 7.08508 15.8003 7.07916H16.0883C16.1823 7.08508 16.2718 7.03829 16.3206 6.95772C16.3694 6.87716 16.3694 6.77616 16.3206 6.6956C16.2718 6.61503 16.1823 6.56824 16.0883 6.57416H16.0893Z" fill="white"/>
<path d="M19.4554 5.06983V8.45383H18.3634C18.2292 8.45409 18.1004 8.40103 18.0054 8.30633C17.9103 8.21162 17.8567 8.08302 17.8564 7.94883V5.57483C17.8567 5.44063 17.9103 5.31203 18.0054 5.21732C18.1004 5.12262 18.2292 5.06956 18.3634 5.06983L19.4554 5.06983Z" fill="#9FB0FE"/>
<path d="M6.88086 20.341V11.011C6.88139 10.6756 7.01521 10.3542 7.25284 10.1175C7.49048 9.88078 7.81245 9.74823 8.14786 9.74903H18.1999C18.5353 9.74823 18.8572 9.88078 19.0949 10.1175C19.3325 10.3542 19.4663 10.6756 19.4669 11.011V20.341H6.88086Z" fill="white"/>
<path fill-rule="evenodd" clip-rule="evenodd" d="M8.39995 22.761H17.948C18.9254 22.7616 19.7187 21.9705 19.721 20.993V1.768C19.7187 0.790914 18.926 -2.4894e-06 17.949 0H8.39995C7.4227 -3.88596e-06 6.62971 0.790752 6.62695 1.768V20.993C6.62971 21.9702 7.4227 22.761 8.39995 22.761ZM7.13295 1.768C7.13461 1.06959 7.70154 0.504446 8.39995 0.505H17.948C18.6464 0.504446 19.2133 1.06959 19.215 1.768V20.993C19.2127 21.6912 18.6461 22.256 17.948 22.256H8.39995C7.70177 22.256 7.13516 21.6912 7.13295 20.993V1.768Z" fill="#2626BC"/>
<path d="M14.0614 1.63482H12.2904C12.1964 1.64074 12.1069 1.59395 12.0581 1.51339C12.0093 1.43282 12.0093 1.33182 12.0581 1.25126C12.1069 1.1707 12.1964 1.12391 12.2904 1.12982H14.0614C14.1554 1.12391 14.2449 1.1707 14.2937 1.25126C14.3425 1.33182 14.3425 1.43282 14.2937 1.51339C14.2449 1.59395 14.1554 1.64074 14.0614 1.63482Z" fill="#B7C5FF"/>
<circle cx="15.2432" cy="1.38191" r="0.253" fill="#B7C5FF"/>
<path d="M12.0913 11.3798H11.0433C10.9493 11.3739 10.8598 11.4207 10.811 11.5013C10.7622 11.5818 10.7622 11.6828 10.811 11.7634C10.8598 11.844 10.9493 11.8907 11.0433 11.8848H12.0913C12.1853 11.8907 12.2748 11.844 12.3236 11.7634C12.3724 11.6828 12.3724 11.5818 12.3236 11.5013C12.2748 11.4207 12.1853 11.3739 12.0913 11.3798Z" fill="#00D890"/>
<path d="M17.2583 12.3998H11.0433C10.9493 12.3939 10.8598 12.4407 10.811 12.5213C10.7622 12.6018 10.7622 12.7028 10.811 12.7834C10.8598 12.864 10.9493 12.9108 11.0433 12.9048H17.2583C17.3523 12.9108 17.4418 12.864 17.4906 12.7834C17.5394 12.7028 17.5394 12.6018 17.4906 12.5213C17.4418 12.4407 17.3523 12.3939 17.2583 12.3998Z" fill="#9FB0FE"/>
<path d="M9.57395 12.9089H8.54695C8.40761 12.9089 8.2945 12.7962 8.29395 12.6569V11.6329C8.29395 11.4932 8.40722 11.3799 8.54695 11.3799H9.57395C9.71367 11.3799 9.82695 11.4932 9.82695 11.6329V12.6569C9.82639 12.7962 9.71328 12.9089 9.57395 12.9089Z" fill="#02FFB3"/>
<path d="M12.0913 14.5092H11.0433C10.9493 14.5033 10.8598 14.5501 10.811 14.6307C10.7622 14.7112 10.7622 14.8122 10.811 14.8928C10.8598 14.9733 10.9493 15.0201 11.0433 15.0142H12.0913C12.1853 15.0201 12.2748 14.9733 12.3236 14.8928C12.3724 14.8122 12.3724 14.7112 12.3236 14.6307C12.2748 14.5501 12.1853 14.5033 12.0913 14.5092Z" fill="#FF5BA8"/>
<path d="M17.258 15.5322H11.043C10.9527 15.5322 10.8691 15.5804 10.8239 15.6587C10.7787 15.7369 10.7787 15.8334 10.8239 15.9117C10.8691 15.9899 10.9527 16.0382 11.043 16.0382H17.258C17.3484 16.0382 17.4319 15.9899 17.4771 15.9117C17.5223 15.8334 17.5223 15.7369 17.4771 15.6587C17.4319 15.5804 17.3484 15.5322 17.258 15.5322Z" fill="#9FB0FE"/>
<path d="M9.57395 16.0378H8.54695C8.40722 16.0378 8.29395 15.9245 8.29395 15.7848V14.7608C8.2945 14.6215 8.40761 14.5088 8.54695 14.5088H9.57395C9.71328 14.5088 9.82639 14.6215 9.82695 14.7608V15.7848C9.82695 15.9245 9.71367 16.0378 9.57395 16.0378Z" fill="#FF7EB8"/>
<path d="M12.0913 17.6371H11.0433C10.9493 17.6312 10.8598 17.678 10.811 17.7586C10.7622 17.8391 10.7622 17.9401 10.811 18.0207C10.8598 18.1013 10.9493 18.1481 11.0433 18.1421H12.0913C12.1853 18.1481 12.2748 18.1013 12.3236 18.0207C12.3724 17.9401 12.3724 17.8391 12.3236 17.7586C12.2748 17.678 12.1853 17.6312 12.0913 17.6371Z" fill="#6583FE"/>
<path d="M17.2585 18.6611H11.0435C10.9466 18.6489 10.8513 18.6936 10.799 18.7761C10.7467 18.8585 10.7467 18.9638 10.799 19.0462C10.8513 19.1286 10.9466 19.1734 11.0435 19.1611H17.2585C17.3553 19.1734 17.4506 19.1286 17.5029 19.0462C17.5552 18.9638 17.5552 18.8585 17.5029 18.7761C17.4506 18.6936 17.3553 18.6489 17.2585 18.6611Z" fill="#9FB0FE"/>
<path d="M9.57395 19.1662H8.54695C8.40722 19.1662 8.29395 19.0529 8.29395 18.9132V17.8892C8.2945 17.7499 8.40761 17.6372 8.54695 17.6372H9.57395C9.71328 17.6372 9.82639 17.7499 9.82695 17.8892V18.9132C9.82695 18.9803 9.80029 19.0447 9.75284 19.0921C9.7054 19.1396 9.64105 19.1662 9.57395 19.1662Z" fill="#9FB0FE"/>
<path fill-rule="evenodd" clip-rule="evenodd" d="M20.6758 18.1419C20.675 18.4349 20.8509 18.6995 21.1213 18.8122C21.3918 18.9249 21.7035 18.8635 21.911 18.6566C22.1185 18.4497 22.1808 18.1381 22.0689 17.8673C21.9569 17.5965 21.6928 17.4199 21.3998 17.4199C21.0007 17.4199 20.6769 17.7428 20.6758 18.1419ZM21.1828 18.1419C21.1828 18.0221 21.2799 17.9249 21.3998 17.9249C21.5196 17.9249 21.6168 18.0221 21.6168 18.1419C21.6168 18.2618 21.5196 18.3589 21.3998 18.3589C21.3421 18.3592 21.2866 18.3364 21.2457 18.2957C21.2048 18.255 21.1818 18.1996 21.1818 18.1419H21.1828Z" fill="#6583FE"/>
<path d="M4.40686 8.11489C4.26752 8.1149 4.15441 8.00223 4.15386 7.86289C4.15386 7.69721 4.01954 7.56289 3.85386 7.56289C3.75986 7.56881 3.67035 7.52202 3.62156 7.44146C3.57276 7.36089 3.57276 7.25989 3.62156 7.17933C3.67035 7.09877 3.75986 7.05198 3.85386 7.05789C4.01954 7.05789 4.15386 6.92358 4.15386 6.75789C4.15386 6.61789 4.26735 6.50439 4.40736 6.50439C4.54736 6.50439 4.66086 6.61789 4.66086 6.75789C4.66086 6.92358 4.79517 7.05789 4.96086 7.05789C5.05486 7.05198 5.14437 7.09877 5.19316 7.17933C5.24196 7.25989 5.24196 7.36089 5.19316 7.44146C5.14437 7.52202 5.05486 7.56881 4.96086 7.56289C4.79517 7.56289 4.66086 7.69721 4.66086 7.86289C4.66059 7.92999 4.63368 7.99424 4.58605 8.0415C4.53842 8.08876 4.47396 8.11516 4.40686 8.11489Z" fill="#01ECA5"/>
<path d="M22.1246 21.1491C21.9853 21.1491 21.8722 21.0364 21.8716 20.8971C21.8716 20.7314 21.7373 20.5971 21.5716 20.5971C21.4776 20.603 21.3881 20.5562 21.3393 20.4756C21.2905 20.3951 21.2905 20.2941 21.3393 20.2135C21.3881 20.1329 21.4776 20.0862 21.5716 20.0921C21.7373 20.0921 21.8716 19.9578 21.8716 19.7921C21.8716 19.6521 21.9851 19.5386 22.1251 19.5386C22.2651 19.5386 22.3786 19.6521 22.3786 19.7921C22.3786 19.9578 22.5129 20.0921 22.6786 20.0921C22.7726 20.0862 22.8621 20.1329 22.9109 20.2135C22.9597 20.2941 22.9597 20.3951 22.9109 20.4756C22.8621 20.5562 22.7726 20.603 22.6786 20.5971C22.5991 20.5971 22.5228 20.6287 22.4665 20.6849C22.4102 20.7412 22.3786 20.8175 22.3786 20.8971C22.3784 20.9642 22.3515 21.0284 22.3038 21.0757C22.2562 21.1229 22.1917 21.1493 22.1246 21.1491Z" fill="#01ECA5"/>
<path d="M22.6822 6.40886C22.5425 6.40886 22.4292 6.29559 22.4292 6.15586C22.4292 6.0763 22.3976 5.99999 22.3414 5.94373C22.2851 5.88747 22.2088 5.85586 22.1292 5.85586C22.0352 5.86178 21.9457 5.81499 21.8969 5.73443C21.8482 5.65386 21.8482 5.55286 21.8969 5.4723C21.9457 5.39173 22.0352 5.34494 22.1292 5.35086C22.2949 5.35086 22.4292 5.21655 22.4292 5.05086C22.4292 4.91086 22.5427 4.79736 22.6827 4.79736C22.8228 4.79736 22.9362 4.91086 22.9362 5.05086C22.9362 5.21655 23.0706 5.35086 23.2362 5.35086C23.3303 5.34494 23.4198 5.39173 23.4686 5.4723C23.5173 5.55286 23.5173 5.65386 23.4686 5.73443C23.4198 5.81499 23.3303 5.86178 23.2362 5.85586C23.1567 5.85586 23.0804 5.88747 23.0241 5.94373C22.9679 5.99999 22.9362 6.0763 22.9362 6.15586C22.9363 6.22314 22.9095 6.28764 22.8618 6.33512C22.8141 6.38259 22.7495 6.40913 22.6822 6.40886Z" fill="#FF5BA8"/>
<path d="M3.88537 10.6052C3.74565 10.6052 3.63237 10.4919 3.63237 10.3522C3.63237 10.1865 3.49806 10.0522 3.33237 10.0522C3.23837 10.0581 3.14886 10.0113 3.10007 9.93072C3.05128 9.85015 3.05128 9.74915 3.10007 9.66859C3.14886 9.58802 3.23837 9.54123 3.33237 9.54715C3.41194 9.54715 3.48825 9.51555 3.54451 9.45928C3.60077 9.40302 3.63237 9.32672 3.63237 9.24715C3.63237 9.10715 3.74587 8.99365 3.88587 8.99365C4.02588 8.99365 4.13937 9.10715 4.13937 9.24715C4.13937 9.32672 4.17098 9.40302 4.22724 9.45928C4.2835 9.51555 4.35981 9.54715 4.43937 9.54715C4.53338 9.54123 4.62288 9.58802 4.67168 9.66859C4.72047 9.74915 4.72047 9.85015 4.67168 9.93072C4.62288 10.0113 4.53338 10.0581 4.43937 10.0522C4.27369 10.0522 4.13937 10.1865 4.13937 10.3522C4.13938 10.4194 4.11258 10.4839 4.06492 10.5314C4.01726 10.5789 3.95265 10.6054 3.88537 10.6052Z" fill="#FF5BA8"/>
</svg>
