<svg width="32" height="36" viewBox="0 0 32 36" fill="none" xmlns="http://www.w3.org/2000/svg">
<path fill-rule="evenodd" clip-rule="evenodd" d="M14.8279 7.21374L17.3249 2.64596L12.9835 0L12.331 1.08367L14.7715 2.56431C6.96044 3.41486 1 9.9985 1 18.0251C1 24.3694 4.77708 30.027 10.6244 32.4275L11.1011 31.2619C5.72444 29.0506 2.25481 23.8589 2.25481 18.0251C2.25481 10.5213 7.92043 4.39125 15.2797 3.78002L13.7236 6.60251L14.8279 7.21374ZM22.3695 3.62264C28.2167 6.02309 32 11.6743 32 18.0251C32 25.9066 26.253 32.3959 18.655 33.4357L21.0894 34.9225L20.4433 36L16.0954 33.3538L18.5924 28.786L19.6967 29.3972L18.1471 32.2259C25.2994 31.4193 30.7452 25.3838 30.7452 18.0251C30.7452 12.1912 27.2694 6.99329 21.8989 4.78823L22.3695 3.62264Z" fill="white"/>
</svg>
