<svg width="25" height="26" viewBox="0 0 25 26" fill="none" xmlns="http://www.w3.org/2000/svg">
<path fill-rule="evenodd" clip-rule="evenodd" d="M17.2962 0.870339C16.654 0.606878 15.9954 0.392816 15.3038 0.228153L15.3367 0.19522L14.8263 0.0799561L14.6945 0.590412L14.3158 2.15471C14.1758 2.12241 14.0288 2.10419 13.884 2.08624C13.8073 2.07674 13.7312 2.06731 13.6572 2.05591C13.262 2.00652 12.8668 1.99005 12.4716 1.99005C12.0764 1.99005 11.6977 2.00652 11.3025 2.05591L10.6603 2.15471L10.2651 0.590412L10.1334 0.0964224L9.62292 0.211687C8.9478 0.37635 8.27268 0.590412 7.6305 0.853873C6.98831 1.11733 6.36259 1.44666 5.7698 1.80892L5.32521 2.08885L5.58867 2.53344L6.42846 3.90014C5.93447 4.24593 5.45694 4.64113 5.02882 5.06925C4.58423 5.49738 4.18904 5.9749 3.84324 6.46889L2.46007 5.64557L2.01548 5.38211L1.73556 5.81024C1.35683 6.40302 1.0275 7.02874 0.764042 7.67093C0.500581 8.31312 0.286519 8.97177 0.121856 9.66335L0.0065918 10.1738L0.517048 10.3055L2.08135 10.6843C2.04904 10.8242 2.03082 10.9713 2.01287 11.1161C2.00337 11.1928 1.99395 11.2688 1.98255 11.3429C1.93315 11.7381 1.91668 12.1333 1.91668 12.5285C1.91668 12.9237 1.93315 13.3024 1.98255 13.6976L2.08135 14.3398L0.517048 14.735L0.0230581 14.8667L0.138322 15.3772C0.302986 16.0523 0.517048 16.7274 0.780509 17.3696C1.04397 18.0118 1.3733 18.6375 1.73556 19.2303L2.01548 19.6749L2.46007 19.4114L3.82678 18.5716C4.17257 19.0656 4.56776 19.5431 4.99589 19.9713C5.42401 20.4159 5.90153 20.8111 6.39552 21.1568L5.57221 22.54L5.30875 22.9846L5.73687 23.2645C6.32966 23.6433 6.95538 23.9726 7.61403 24.236C8.25622 24.4995 8.93134 24.7136 9.62292 24.8782L10.1334 24.9935L10.2651 24.4995L10.6603 22.9352C10.8744 22.9846 11.0884 23.0175 11.3025 23.034C11.6977 23.0834 12.0764 23.0999 12.4716 23.0999C12.8668 23.0999 13.262 23.0834 13.6572 23.034C13.7642 23.0175 13.8753 23.0011 13.9865 22.9846C14.0976 22.9681 14.2088 22.9517 14.3158 22.9352L14.6945 24.4995L14.8263 25.01L15.3367 24.8947C16.0283 24.73 16.687 24.516 17.3292 24.2525C17.9713 23.9726 18.5971 23.6597 19.1899 23.281L19.618 23.0011L19.3545 22.5565L18.5312 21.1733C19.0252 20.8275 19.5027 20.4159 19.9308 19.9877C20.359 19.5596 20.7542 19.0821 21.0999 18.5881L22.4667 19.4279L22.9112 19.6913L23.1912 19.2468C23.5534 18.6704 23.8828 18.0447 24.1462 17.3861C24.4097 16.7439 24.6237 16.0852 24.7884 15.3936L24.9037 14.8832L24.4097 14.7514L22.8454 14.3563C22.8948 14.1422 22.9277 13.9281 22.9442 13.7141C22.9936 13.3189 23.01 12.9402 23.01 12.545C23.01 12.1498 22.9936 11.7546 22.9442 11.3594C22.9277 11.2524 22.9112 11.1412 22.8948 11.0301C22.8783 10.9189 22.8618 10.8078 22.8454 10.7007L24.4097 10.322L24.9201 10.1903L24.8049 9.67982C24.6402 8.98823 24.4261 8.32958 24.1627 7.6874C23.8828 7.04521 23.5699 6.41949 23.1912 5.8267L22.9112 5.39858L22.4667 5.66204L21.0835 6.48535C20.7377 5.99136 20.326 5.51384 19.8979 5.08572C19.4698 4.65759 18.9923 4.2624 18.4983 3.91661L19.3381 2.5499L19.6015 2.10531L19.1569 1.82539C18.5641 1.46313 17.9384 1.1338 17.2962 0.870339ZM15.5673 1.3808C16.0119 1.51253 16.4564 1.66072 16.8846 1.84185V1.80892C17.3127 1.99005 17.7244 2.18764 18.136 2.41817L17.3127 3.76841L17.0492 4.213L17.4938 4.49293C18.0866 4.87165 18.6465 5.31625 19.1405 5.81024C19.6344 6.30422 20.079 6.86408 20.4578 7.45687L20.7377 7.88499L21.1823 7.62153L22.5325 6.81468C22.763 7.22634 22.9771 7.638 23.1582 8.08259C23.3394 8.52718 23.4876 8.9553 23.6193 9.41636L22.0879 9.79508L21.5775 9.91035L21.6927 10.4208C21.7751 10.7666 21.8409 11.1124 21.8739 11.4746C21.9233 11.8204 21.9397 12.1827 21.9397 12.545C21.9397 12.9072 21.9233 13.253 21.8903 13.5988C21.8574 13.9611 21.808 14.3069 21.7257 14.6362L21.6104 15.1302L22.1044 15.2619L23.6358 15.6406C23.504 16.1017 23.3558 16.5463 23.1747 16.9744C23.01 17.4025 22.796 17.8306 22.5654 18.2423L21.2152 17.419L20.7706 17.1555L20.4907 17.6001C20.112 18.1929 19.6674 18.7528 19.1734 19.2468C18.6794 19.7407 18.1195 20.1853 17.5268 20.5641L17.0986 20.844L17.3621 21.2886L18.1689 22.6388C17.7573 22.8693 17.3456 23.0834 16.901 23.2645C16.4564 23.4457 16.0283 23.5939 15.5673 23.7256L15.1885 22.1942L15.0733 21.6838L14.5628 21.799C14.217 21.8814 13.8712 21.9472 13.509 21.9802C13.1632 22.0296 12.8009 22.046 12.4387 22.046C12.0764 22.046 11.7306 22.0296 11.3848 21.9966C11.0226 21.9637 10.6768 21.9143 10.3474 21.832L9.85345 21.7167L9.72172 22.2107L9.34299 23.7421C8.88194 23.6103 8.42088 23.4621 7.99276 23.281C7.54817 23.0999 7.12004 22.8858 6.70838 22.6553L7.51523 21.305L7.77869 20.8605L7.35057 20.5805C6.75778 20.2018 6.19793 19.7572 5.70394 19.2632C5.20995 18.7692 4.76536 18.2094 4.38663 17.6166L4.10671 17.172L3.66211 17.4355L2.31188 18.2588C2.08135 17.8471 1.88375 17.419 1.70262 16.9909C1.52149 16.5627 1.3733 16.1182 1.24157 15.6571L2.77293 15.2784L3.26692 15.1466L3.15166 14.6526C3.08579 14.3233 3.01993 13.9775 2.987 13.6153C2.95406 13.2695 2.9376 12.9237 2.9376 12.5614C2.9376 12.1992 2.97053 11.8369 3.00346 11.4911C3.05286 11.1289 3.10226 10.7831 3.18459 10.4373L3.29986 9.92682L2.7894 9.81155L1.25803 9.43283C1.38976 8.97177 1.53796 8.52718 1.71909 8.09905C1.90022 7.65446 2.11428 7.24281 2.34481 6.83115L3.69505 7.638L4.13964 7.90146L4.41957 7.47333C4.79829 6.88055 5.24288 6.32069 5.73687 5.8267C6.23086 5.33271 6.79072 4.88812 7.3835 4.5094L7.82809 4.22947L7.56463 3.78488L6.74132 2.43464C7.15297 2.20411 7.5811 2.00652 8.00922 1.82539C8.43735 1.64426 8.88194 1.49606 9.34299 1.36433L9.72172 2.8957L9.85345 3.38969L10.3474 3.27442C10.6768 3.20856 11.0226 3.14269 11.3848 3.10976C11.7306 3.07683 12.0764 3.06036 12.4387 3.06036C12.8009 3.06036 13.1632 3.09329 13.509 3.12622C13.8712 3.17562 14.217 3.22502 14.5628 3.30735L15.0733 3.42262L15.1885 2.91216L15.5673 1.3808Z" fill="#FFFFFF"/>
<path fill-rule="evenodd" clip-rule="evenodd" d="M17.5762 7.42396C16.2589 6.10665 14.4476 5.2998 12.4551 5.2998C10.4463 5.2998 8.65142 6.10665 7.33412 7.42396C6.01681 8.74127 5.20996 10.5526 5.20996 12.545C5.20996 14.5539 6.01681 16.3487 7.33412 17.666C8.65142 18.9833 10.4627 19.7902 12.4551 19.7902C14.464 19.7902 16.2589 18.9833 17.5762 17.666C18.8935 16.3487 19.7003 14.5374 19.7003 12.545C19.7003 10.5361 18.8935 8.74127 17.5762 7.42396ZM12.4551 6.35365C14.1676 6.35365 15.7155 7.04523 16.8352 8.16494C17.9549 9.28465 18.6465 10.8325 18.6465 12.545C18.6465 14.2575 17.9549 15.8053 16.8352 16.925C15.7155 18.0447 14.1676 18.7363 12.4551 18.7363C10.7426 18.7363 9.19481 18.0447 8.0751 16.925C6.95539 15.8053 6.26381 14.2575 6.26381 12.545C6.26381 10.8325 6.95539 9.28465 8.0751 8.16494C9.19481 7.04523 10.7426 6.35365 12.4551 6.35365Z" fill="#FFFFFF"/>
<path fill-rule="evenodd" clip-rule="evenodd" d="M14.3159 10.6843C13.8383 10.2068 13.1797 9.9104 12.4552 9.9104C11.7306 9.9104 11.072 10.2068 10.5945 10.6843C10.117 11.1618 9.82056 11.8205 9.82056 12.545C9.82056 13.2695 10.117 13.9282 10.5945 14.4057C11.072 14.8832 11.7306 15.1796 12.4552 15.1796C13.1797 15.1796 13.8383 14.8832 14.3159 14.4057C14.7934 13.9282 15.0898 13.2695 15.0898 12.545C15.0898 11.8205 14.7934 11.1618 14.3159 10.6843ZM12.4552 10.9642C12.8998 10.9642 13.295 11.1454 13.5749 11.4253C13.8548 11.7052 14.0359 12.1004 14.0359 12.545C14.0359 12.9896 13.8548 13.3848 13.5749 13.6647C13.295 13.9446 12.8998 14.1258 12.4552 14.1258C12.0106 14.1258 11.6154 13.9446 11.3355 13.6647C11.0555 13.3848 10.8744 12.9896 10.8744 12.545C10.8744 12.1004 11.0555 11.7052 11.3355 11.4253C11.6154 11.1454 12.0106 10.9642 12.4552 10.9642Z" fill="#FFFFFF"/>
</svg>
