<svg width="20" height="18" viewBox="0 0 20 18" fill="white" xmlns="http://www.w3.org/2000/svg">
<path d="M9.2656 3.13477L9.99996 4.39495L10.7344 3.1348C11.8257 1.26225 13.9309 0.567645 15.799 0.966599C17.6329 1.35823 19.15 2.78163 19.15 5.16014C19.15 6.70081 18.2628 8.37734 16.5949 10.3822C15.2261 12.0276 13.4334 13.7795 11.4121 15.7547C10.9878 16.1694 10.5534 16.5939 10.1108 17.0293C10.05 17.0891 9.95012 17.0891 9.88929 17.0293C9.44541 16.5926 9.00983 16.1669 8.58437 15.7511C6.5648 13.7773 4.77344 12.0266 3.40532 10.3822C1.73732 8.37727 0.85 6.70076 0.85 5.16014C0.85 2.78952 2.36443 1.35792 4.19636 0.96073C6.05953 0.556768 8.16433 1.24498 9.2656 3.13477Z" stroke="white" stroke-width="1.7"/>
</svg>
