<svg width="30" height="30" viewBox="0 0 30 30" fill="none" xmlns="http://www.w3.org/2000/svg">
<rect width="30" height="30" fill="#CDE0FF" fill-opacity="0.01"/>
<path fill-rule="evenodd" clip-rule="evenodd" d="M3.17028 6.46053C2.81063 5.63051 3.65015 4.78752 4.48164 5.14375L26.2868 14.4855C27.0955 14.8319 27.0949 15.9785 26.286 16.3242L4.45463 25.6532C3.62655 26.0071 2.78932 25.1719 3.14117 24.343L6.25332 17.0112C6.40321 16.658 6.74192 16.4218 7.1251 16.4031L27.5696 15.4058L7.09043 14.1336C6.715 14.1103 6.38442 13.8782 6.23487 13.5331L3.17028 6.46053Z" fill="#CDE0FF"/>
<mask id="mask0" mask-type="alpha" maskUnits="userSpaceOnUse" x="3" y="5" width="25" height="21">
<path fill-rule="evenodd" clip-rule="evenodd" d="M3.17028 6.46053C2.81063 5.63051 3.65015 4.78752 4.48164 5.14375L26.2868 14.4855C27.0955 14.8319 27.0949 15.9785 26.286 16.3242L4.45463 25.6532C3.62655 26.0071 2.78932 25.1719 3.14117 24.343L6.25332 17.0112C6.40321 16.658 6.74192 16.4218 7.1251 16.4031L27.5696 15.4058L7.09043 14.1336C6.715 14.1103 6.38442 13.8782 6.23487 13.5331L3.17028 6.46053Z" fill="white"/>
</mask>
<g mask="url(#mask0)">
<path fill-rule="evenodd" clip-rule="evenodd" d="M15.0039 5C11.2495 5 8.00289 7.00141 6.37333 10.1262L5 8.19038L5.46246 13.6556L10.4886 12.8775L8.12476 11.8713C9.37622 9.37622 12.001 7.50293 15.0039 7.50293C19.1223 7.50293 22.4971 10.8777 22.4971 14.9961C22.4971 19.1223 19.1223 22.4971 15.0039 22.4971C12.751 22.4971 10.7496 21.4971 9.37622 19.8738L7.50293 21.4971C9.25435 23.6267 12.001 25 15.0039 25C20.5019 25 25 20.5019 25 14.9961C25 9.49809 20.5019 5 15.0039 5Z" fill="white"/>
<rect width="30" height="30" fill="url(#paint0_linear)"/>
<rect width="30" height="30" fill="#CDE0FF"/>
</g>
<defs>
<linearGradient id="paint0_linear" x1="0.311802" y1="0" x2="0.311802" y2="29.3764" gradientUnits="userSpaceOnUse">
<stop stop-color="#B783FF"/>
<stop offset="1" stop-color="#CDE0FF"/>
</linearGradient>
</defs>
</svg>
