<svg width="76" height="76" viewBox="0 0 76 76" fill="none" xmlns="http://www.w3.org/2000/svg">
<circle cx="38" cy="38" r="38" fill="#484848"/>
<mask id="mask0" mask-type="alpha" maskUnits="userSpaceOnUse" x="0" y="0" width="76" height="76">
<circle cx="38" cy="38" r="38" fill="white"/>
</mask>
<g mask="url(#mask0)">
</g>
<path d="M39.1681 37.4608C38.778 37.1478 38.2229 37.1478 37.8329 37.4608L32.4919 41.7335C32.0311 42.1022 31.9563 42.7748 32.325 43.2357C32.6938 43.6965 33.3663 43.7713 33.8272 43.4026L37.4323 40.5185V55.3862C37.4323 55.9761 37.9105 56.4544 38.5005 56.4544C39.0904 56.4544 39.5687 55.9761 39.5687 55.3862V40.5185L43.1738 43.4026C43.6347 43.7713 44.3072 43.6965 44.6759 43.2357C45.0446 42.7748 44.9699 42.1022 44.509 41.7335L39.1681 37.4608Z" fill="white"/>
<path d="M53.4546 30.8182C53.3983 30.8182 53.3429 30.8182 53.2877 30.8203C52.3494 24.289 47.239 19.1459 40.7138 18.166C34.1886 17.1861 27.793 20.6013 24.9777 26.569C19.2296 26.9509 14.8198 31.822 15.0098 37.5795C15.1998 43.3371 19.9211 47.9069 25.6818 47.9091H26.75C27.3399 47.9091 27.8182 47.4309 27.8182 46.8409C27.8182 46.251 27.3399 45.7727 26.75 45.7727H25.6818C20.9623 45.7727 17.1364 41.9468 17.1364 37.2273C17.1364 32.5078 20.9623 28.6818 25.6818 28.6818C26.1129 28.6818 26.5018 28.4226 26.6676 28.0247C28.9506 22.5376 34.7082 19.3416 40.5725 20.3063C46.4368 21.2709 50.8672 26.1427 51.2723 32.072C51.2931 32.3706 51.4381 32.6469 51.672 32.8336C51.9059 33.0204 52.2074 33.1006 52.5032 33.0547C52.8173 32.9969 53.1353 32.9634 53.4546 32.9545C56.9942 32.9545 59.8636 35.824 59.8636 39.3636C59.8636 42.9033 56.9942 45.7727 53.4546 45.7727H50.25C49.6601 45.7727 49.1818 46.251 49.1818 46.8409C49.1818 47.4309 49.6601 47.9091 50.25 47.9091H53.4546C58.1741 47.9091 62 44.0832 62 39.3636C62 34.6441 58.1741 30.8182 53.4546 30.8182Z" fill="white"/>
</svg>
