<svg width="24" height="22" viewBox="0 0 24 22" fill="none" xmlns="http://www.w3.org/2000/svg">
<path fill-rule="evenodd" clip-rule="evenodd" d="M7.50336 1C3.94327 1 1.04785 3.90878 1.04785 7.4853V9.80751C1.04785 12.9829 3.31015 15.6688 6.42648 16.1953L6.82529 16.263V20L13.1522 16.2928H15.5923C19.1529 16.2928 22.0479 13.3836 22.0479 9.80751V7.4853C22.0479 3.90878 19.1529 1 15.5923 1H7.50336ZM5.84729 17.3131C2.46277 16.5423 0.0478516 13.5022 0.0478516 9.93356V7.57206C0.0478516 3.39668 3.38534 0 7.48796 0H15.6077C19.7104 0 23.0479 3.39668 23.0479 7.57206V9.93356C23.0479 14.1089 19.7104 17.5056 15.6077 17.5056H13.418L5.84729 22V17.3131Z" fill="#A4A4A4"/>
</svg>
