<svg width="24" height="24" viewBox="0 0 24 24" fill="none" xmlns="http://www.w3.org/2000/svg">
<path d="M13.9746 16.0581L13.6181 16.4087V16.4087L13.9746 16.0581ZM13.0682 15.6788L13.0641 15.1788H13.0641L13.0682 15.6788ZM14.357 17.0017L13.857 17.0016V17.0017H14.357ZM14.357 21.9993V22.4993C14.6332 22.4993 14.857 22.2754 14.857 21.9993H14.357ZM9.64259 21.9993H9.14259C9.14259 22.2754 9.36645 22.4993 9.64259 22.4993V21.9993ZM13.0641 15.6788H13.5641C13.5641 15.4026 13.3403 15.1788 13.0641 15.1788V15.6788ZM13.0641 15.6788H12.5641C12.5641 15.8121 12.6174 15.9399 12.7121 16.0338C12.8067 16.1277 12.935 16.1799 13.0683 16.1788L13.0641 15.6788ZM8.64259 21.9993V22.4993C8.91873 22.4993 9.14259 22.2754 9.14259 21.9993H8.64259ZM13.0622 14.6788V15.1788L13.0658 15.1788L13.0622 14.6788ZM14.6875 15.3569L15.044 15.0063L15.044 15.0063L14.6875 15.3569ZM15.357 17.0017L14.857 17.0017V17.0017H15.357ZM15.357 21.9993H14.857C14.857 22.2754 15.0809 22.4993 15.357 22.4993V21.9993ZM19.3572 8.62503H19.8572C19.8572 8.46561 19.7812 8.31575 19.6525 8.22158L19.3572 8.62503ZM12.0004 3.23933L12.2957 2.83588C12.1199 2.70714 11.8809 2.70714 11.705 2.83588L12.0004 3.23933ZM4.64243 8.62585L4.34708 8.2224C4.21845 8.31657 4.14243 8.46643 4.14243 8.62585H4.64243ZM4.64243 20.6544L5.14243 20.6545V20.6544H4.64243ZM5.91833 21.9993L5.90873 22.4993H5.91833V21.9993ZM9.12159 22.9993L9.14225 22.4997C9.13537 22.4994 9.12848 22.4993 9.12159 22.4993V22.9993ZM5.90577 22.9993L5.40583 22.9919C5.40386 23.1258 5.45566 23.2548 5.54963 23.3502C5.6436 23.4456 5.77189 23.4993 5.90577 23.4993V22.9993ZM5.90578 22.9992L6.40572 23.0065C6.40978 22.7307 6.18971 22.5037 5.91391 22.4993L5.90578 22.9992ZM3.64243 20.6544L4.14243 20.6544V20.6544H3.64243ZM3.64243 9.35792H4.14243C4.14243 9.16957 4.03659 8.99721 3.86862 8.912C3.70065 8.8268 3.49905 8.84322 3.34708 8.95447L3.64243 9.35792ZM2.59077 10.1278L2.88612 10.5313H2.88612L2.59077 10.1278ZM1.19318 9.91162L1.59662 9.61627L1.59662 9.61627L1.19318 9.91162ZM1.40937 8.51402L1.11402 8.11058H1.11402L1.40937 8.51402ZM11.4097 1.19311L11.705 1.59655L11.705 1.59655L11.4097 1.19311ZM12.5911 1.19311L12.8864 0.789664V0.789664L12.5911 1.19311ZM22.5913 8.51402L22.8867 8.11058L22.5913 8.51402ZM22.8075 9.91162L22.4041 9.61627L22.8075 9.91162ZM21.4099 10.1278L21.7053 9.72436L21.4099 10.1278ZM20.3572 9.3571L20.6525 8.95366C20.5005 8.8424 20.2989 8.82598 20.131 8.91119C19.963 8.99639 19.8572 9.16876 19.8572 9.3571H20.3572ZM14.878 22.9993V22.4993C14.8712 22.4993 14.8643 22.4994 14.8574 22.4997L14.878 22.9993ZM14.3311 15.7075C13.9944 15.3652 13.5383 15.1749 13.0641 15.1788L13.0724 16.1787C13.2719 16.1771 13.4688 16.2569 13.6181 16.4087L14.3311 15.7075ZM14.857 17.0017C14.8571 16.5156 14.6677 16.0497 14.3311 15.7075L13.6181 16.4087C13.7683 16.5614 13.8571 16.7744 13.857 17.0016L14.857 17.0017ZM14.857 17.0017V17.0017H13.857V17.0017H14.857ZM14.857 21.9993V17.0017H13.857V21.9993H14.857ZM9.64259 22.4993H14.357V21.4993H9.64259V22.4993ZM9.14259 17.0017V21.9993H10.1426V17.0017H9.14259ZM10.9212 15.1788C9.94024 15.1788 9.14259 15.9936 9.14259 17.0017H10.1426C10.1426 16.5252 10.5129 16.1788 10.9212 16.1788V15.1788ZM13.0641 15.1788H10.9212V16.1788H13.0641V15.1788ZM13.5641 15.6788V15.6788H12.5641V15.6788H13.5641ZM13.0641 15.1788L13.06 15.1788L13.0683 16.1788L13.0724 16.1787L13.0641 15.1788ZM9.14259 21.9993V17.0017H8.14259V21.9993H9.14259ZM9.14259 17.0017C9.14259 15.9941 9.93966 15.1788 10.9212 15.1788V14.1788C9.36283 14.1788 8.14259 15.4667 8.14259 17.0017H9.14259ZM10.9212 15.1788H13.0622V14.1788H10.9212V15.1788ZM13.0658 15.1788C13.5394 15.1753 13.9948 15.3656 14.3311 15.7075L15.044 15.0063C14.5207 14.4742 13.8065 14.1734 13.0586 14.1788L13.0658 15.1788ZM14.3311 15.7075C14.6677 16.0497 14.8571 16.5156 14.857 17.0017L15.857 17.0017C15.8571 16.257 15.5672 15.5382 15.044 15.0063L14.3311 15.7075ZM14.857 17.0017V17.0017H15.857V17.0017H14.857ZM14.857 17.0017V21.9993H15.857V17.0017H14.857ZM15.357 22.4993H18.0571V21.4993H15.357V22.4993ZM18.0571 22.4993C19.0499 22.4993 19.8572 21.6746 19.8572 20.6544H18.8572C18.8572 21.143 18.4772 21.4993 18.0571 21.4993V22.4993ZM19.8572 20.6544V8.62503H18.8572V20.6544H19.8572ZM19.6525 8.22158L12.2957 2.83588L11.705 3.64277L19.0618 9.02848L19.6525 8.22158ZM11.705 2.83588L4.34708 8.2224L4.93778 9.02929L12.2957 3.64277L11.705 2.83588ZM4.14243 8.62585V20.6544H5.14243V8.62585H4.14243ZM4.14243 20.6544V20.6544H5.14243V20.6544H4.14243ZM4.14243 20.6544C4.14231 21.6615 4.92938 22.4804 5.90874 22.4992L5.92793 21.4993C5.51306 21.4914 5.14237 21.1367 5.14243 20.6545L4.14243 20.6544ZM5.91833 22.4993H8.64259V21.4993H5.91833V22.4993ZM9.12159 22.4993H5.91391V23.4993H9.12159V22.4993ZM5.91391 22.4993H5.90577V23.4993H5.91391V22.4993ZM6.40572 23.0066L6.40572 23.0065L5.40583 22.9918L5.40583 22.9919L6.40572 23.0066ZM5.91391 22.4993C4.93167 22.4833 4.14233 21.6627 4.14243 20.6544L3.14243 20.6543C3.14228 22.1844 4.34559 23.4739 5.89764 23.4991L5.91391 22.4993ZM4.14243 20.6544V20.6543H3.14243V20.6544H4.14243ZM4.14243 20.6543V9.35792H3.14243V20.6543H4.14243ZM3.34708 8.95447L2.29542 9.72436L2.88612 10.5313L3.93778 9.76136L3.34708 8.95447ZM2.29542 9.72436C2.0726 9.88748 1.75974 9.83908 1.59662 9.61627L0.789732 10.207C1.27908 10.8754 2.21767 11.0206 2.88612 10.5313L2.29542 9.72436ZM1.59662 9.61627C1.43351 9.39345 1.4819 9.08059 1.70472 8.91747L1.11402 8.11058C0.445567 8.59993 0.300379 9.53852 0.789732 10.207L1.59662 9.61627ZM1.70472 8.91747L11.705 1.59655L11.1143 0.789664L1.11402 8.11058L1.70472 8.91747ZM11.705 1.59655C11.8809 1.46782 12.1199 1.46781 12.2957 1.59655L12.8864 0.789664C12.3588 0.403446 11.6419 0.403445 11.1143 0.789664L11.705 1.59655ZM12.2957 1.59655L22.296 8.91747L22.8867 8.11058L12.8864 0.789664L12.2957 1.59655ZM22.296 8.91747C22.5188 9.08059 22.5672 9.39345 22.4041 9.61627L23.211 10.207C23.7003 9.53852 23.5551 8.59993 22.8867 8.11058L22.296 8.91747ZM22.4041 9.61627C22.241 9.83908 21.9281 9.88748 21.7053 9.72436L21.1146 10.5313C21.783 11.0206 22.7216 10.8754 23.211 10.207L22.4041 9.61627ZM21.7053 9.72436L20.6525 8.95366L20.0618 9.76055L21.1146 10.5313L21.7053 9.72436ZM19.8572 9.3571V20.6544H20.8572V9.3571H19.8572ZM19.8572 20.6544C19.8572 21.674 19.0505 22.4993 18.0571 22.4993V23.4993C19.6273 23.4993 20.8572 22.2015 20.8572 20.6544H19.8572ZM18.0571 22.4993H14.878V23.4993H18.0571V22.4993ZM14.8574 22.4997L14.857 22.4997V23.4997C14.8709 23.4997 14.8848 23.4994 14.8987 23.4988L14.8574 22.4997ZM14.857 22.4997H9.14259V23.4997H14.857V22.4997ZM9.14259 22.4997L9.14225 22.4997L9.10093 23.4988C9.1148 23.4994 9.12869 23.4997 9.14259 23.4997V22.4997Z" fill="#3995FF"/>
</svg>
