<svg width="20" height="20" viewBox="0 0 20 20" fill="none" xmlns="http://www.w3.org/2000/svg">
<path d="M19.0244 0.0455904L0.463375 7.09669C0.322613 7.15051 0.20226 7.24709 0.119239 7.37285C0.0362185 7.49862 -0.0052936 7.64724 0.00054055 7.79783C0.0063747 7.94841 0.0592615 8.09338 0.151764 8.21234C0.244267 8.33131 0.371732 8.41829 0.516235 8.46105L9.02456 10.9755L11.539 19.4838C11.5816 19.6284 11.6685 19.756 11.7874 19.8486C11.9063 19.9413 12.0513 19.9943 12.2019 20.0003H12.2283C12.3741 20 12.5164 19.9556 12.6364 19.8728C12.7564 19.7901 12.8485 19.6728 12.9005 19.5367L19.9537 0.974927C20.0026 0.845242 20.0131 0.704216 19.9838 0.568745C19.9546 0.433273 19.8869 0.309101 19.7889 0.211104C19.6909 0.113107 19.5668 0.045441 19.4313 0.0162122C19.2958 -0.0130166 19.1548 -0.00256876 19.0251 0.0463043L19.0244 0.0455904ZM2.9728 7.68458L16.395 2.58644L9.39886 9.58183L2.9728 7.68458ZM12.3147 17.0265L10.4175 10.5976L17.4129 3.60436L12.3147 17.0265Z" fill="black"/>
</svg>
