<svg width="20" height="18" viewBox="0 0 20 18" fill="none" xmlns="http://www.w3.org/2000/svg">
<path d="M15.0922 5.25539C14.7232 5.03717 14.2435 5.03717 13.8377 5.25539L10.9594 6.92839L9.00366 8.0195L6.12546 9.69246C5.75645 9.91067 5.27675 9.91067 4.87085 9.69246L2.58303 8.38313C2.21402 8.16492 1.95572 7.7649 1.95572 7.32846V4.74622C1.95572 4.30978 2.17712 3.90972 2.58303 3.6915L4.83394 2.41857C5.20295 2.20036 5.68265 2.20036 6.08855 2.41857L8.33949 3.6915C8.70846 3.90972 8.96678 4.30978 8.96678 4.74622V6.41922L10.9225 5.29176V3.61877C10.9225 3.18233 10.7011 2.78226 10.2952 2.56405L6.12546 0.163663C5.75645 -0.0545543 5.27675 -0.0545543 4.87085 0.163663L0.627306 2.56405C0.221402 2.78226 0 3.18233 0 3.61877V8.45592C0 8.89234 0.221402 9.29244 0.627306 9.51065L4.87085 11.911C5.23984 12.1292 5.71956 12.1292 6.12546 11.911L9.00366 10.2744L10.9594 9.14694L13.8377 7.5103C14.2066 7.29208 14.6863 7.29208 15.0922 7.5103L17.3432 8.78323C17.7121 9.00144 17.9704 9.40154 17.9704 9.83796V12.4202C17.9704 12.8566 17.7491 13.2567 17.3432 13.4749L15.0922 14.7842C14.7232 15.0024 14.2435 15.0024 13.8377 14.7842L11.5867 13.5113C11.2177 13.2931 10.9594 12.893 10.9594 12.4565V10.7836L9.00366 11.911V13.584C9.00366 14.0204 9.22511 14.4205 9.63096 14.6387L13.8745 17.0391C14.2435 17.2573 14.7232 17.2573 15.1291 17.0391L19.3727 14.6387C19.7417 14.4205 20 14.0204 20 13.584V8.74684C20 8.31042 19.7786 7.9104 19.3727 7.69219L15.0922 5.25539Z" fill="#8247E5"/>
</svg>
