<svg width="32" height="32" viewBox="0 0 32 32" fill="none" xmlns="http://www.w3.org/2000/svg">
<g clip-path="url(#clip0_3491_4)">
<path d="M31.5 16C31.5 24.5614 24.5614 31.5 16 31.5C7.43864 31.5 0.5 24.5614 0.5 16C0.5 7.43864 7.43864 0.5 16 0.5C24.5614 0.5 31.5 7.43864 31.5 16Z" stroke="#E8E8EA"></path>
<path d="M24.4436 12.1633C24.2998 10.9195 23.9998 10.557 23.7873 10.3883C23.4498 10.1258 22.8373 10.032 22.0186 9.97578C20.7061 9.88828 18.4748 9.83203 16.0686 9.83203C13.6561 9.83203 11.4311 9.88203 10.1186 9.97578C9.2998 10.032 8.68731 10.1258 8.34981 10.3883C8.13731 10.557 7.84355 10.9195 7.69355 12.1633C7.48105 13.957 7.48105 18.0445 7.69355 19.8383C7.84355 21.082 8.13731 21.4445 8.34981 21.6133C8.68731 21.8758 9.2998 21.9695 10.1186 22.0258C11.4311 22.1133 13.6561 22.1695 16.0686 22.1695C18.4811 22.1695 20.7061 22.1133 22.0186 22.0258C22.8373 21.9695 23.4498 21.8758 23.7873 21.6133C23.9998 21.4508 24.2936 21.082 24.4436 19.8383C24.6561 18.0445 24.6561 13.957 24.4436 12.1633ZM14.0061 18.682V13.3133L19.1561 15.9945L14.0061 18.682Z" fill="black"></path></g>
<defs><clipPath id="clip0_3463_373"><rect width="32" height="32" fill="white"></rect></clipPath></defs></svg>