<svg width="81" height="81" viewBox="0 0 81 81" fill="none" xmlns="http://www.w3.org/2000/svg">
<circle cx="40.5" cy="40.5" r="39.5" stroke="#5F94FF"/>
<path fill-rule="evenodd" clip-rule="evenodd" d="M63 29.4034C63 30.3525 62.2305 31.1219 61.2813 31.1219C60.332 31.1219 59.5625 30.3525 59.5623 29.4034V27.599C59.5623 24.7527 57.2463 22.437 54.3996 22.437L27.6914 22.4435C26.2514 22.4435 24.8554 23.0407 23.8613 24.0821C22.8815 25.1087 22.3778 26.445 22.4432 27.8449C22.5718 30.5979 24.8342 32.7545 27.5938 32.7545H54.3997C59.1419 32.7545 63 36.612 63 41.3535V54.401C63 59.1425 59.1419 63 54.3997 63H29.3191C23.6292 63 19.0001 58.3716 19.0001 52.6825C19.0001 52.6825 19.0018 27.9398 19.0051 27.896C18.9261 25.5885 19.7652 23.3954 21.3747 21.7092C22.945 20.0641 25.1234 19.0911 27.3912 19.0119C27.4576 19.004 54.3997 19 54.3997 19C59.1418 19 63 22.8575 63 27.599V29.4034ZM54.3997 36.1915H27.5938C25.6614 36.1915 23.8752 35.5566 22.4376 34.4799V52.6825C22.4376 56.4764 25.5247 59.563 29.3191 59.563H54.3997C57.2464 59.563 59.5624 57.2473 59.5624 54.401V41.3535C59.5624 38.5072 57.2464 36.1915 54.3997 36.1915ZM56.125 47.8772C56.125 49.0636 55.1631 50.0254 53.9766 50.0254C51.1267 49.9122 51.1275 45.8419 53.9766 45.7291C55.1631 45.7291 56.125 46.6909 56.125 47.8772ZM54.4063 25.8805C55.3555 25.8805 56.125 26.6499 56.125 27.599C56.125 28.5481 55.3554 29.3175 54.4063 29.3175H27.5938C25.3151 29.2275 25.3134 25.9712 27.5938 25.8805H54.4063Z" fill="url(#paint0_linear)"/>
<defs>
<linearGradient id="paint0_linear" x1="19" y1="19" x2="19" y2="63" gradientUnits="userSpaceOnUse">
<stop stop-color="#5F94FF"/>
<stop offset="1" stop-color="#213997"/>
</linearGradient>
</defs>
</svg>
