<svg width="85" height="16" viewBox="0 0 85 16" fill="none" xmlns="http://www.w3.org/2000/svg">
<path d="M10.823 8.217L10.865 7.965H11.768C12.174 7.335 12.587 6.698 13.007 6.054C13.441 5.41 13.91 4.808 14.414 4.248C14.932 3.674 15.499 3.17 16.115 2.736C16.745 2.288 17.445 1.966 18.215 1.77V1.728C17.851 1.728 17.48 1.728 17.102 1.728C16.724 1.714 16.311 1.7 15.863 1.686C15.429 1.672 14.939 1.665 14.393 1.665C13.861 1.651 13.252 1.644 12.566 1.644C11.18 1.644 9.92 1.763 8.786 2.001C7.652 2.239 6.679 2.575 5.867 3.009C5.069 3.443 4.446 3.954 3.998 4.542C3.55 5.116 3.312 5.753 3.284 6.453C3.256 7.125 3.494 7.664 3.998 8.07C4.516 8.462 5.216 8.658 6.098 8.658C6.672 8.658 7.26 8.567 7.862 8.385C8.464 8.189 9.01 7.923 9.5 7.587C9.99 7.237 10.389 6.824 10.697 6.348C11.019 5.872 11.18 5.354 11.18 4.794C11.18 4.556 11.159 4.346 11.117 4.164C11.075 3.968 11.033 3.793 10.991 3.639L11.201 3.597C11.355 3.989 11.432 4.395 11.432 4.815C11.432 5.319 11.285 5.816 10.991 6.306C10.697 6.796 10.305 7.237 9.815 7.629C9.325 8.007 8.751 8.315 8.093 8.553C7.449 8.791 6.777 8.91 6.077 8.91C5.139 8.91 4.397 8.7 3.851 8.28C3.305 7.86 3.032 7.272 3.032 6.516C3.032 5.746 3.291 5.011 3.809 4.311C4.341 3.597 5.104 2.967 6.098 2.421C7.092 1.875 8.31 1.441 9.752 1.119C11.208 0.797 12.86 0.636 14.708 0.636C15.94 0.636 17.011 0.649999 17.921 0.677999C18.845 0.706 19.531 0.72 19.979 0.72C20.301 0.72 20.588 0.706 20.84 0.677999C21.106 0.649999 21.344 0.636 21.554 0.636C21.834 0.636 22.072 0.656999 22.268 0.698999C22.464 0.726999 22.562 0.845999 22.562 1.056C22.562 1.238 22.527 1.378 22.457 1.476C22.387 1.574 22.212 1.644 21.932 1.686C21.666 1.728 21.267 1.756 20.735 1.77C20.203 1.77 19.482 1.77 18.572 1.77C17.76 2.064 17.081 2.456 16.535 2.946C15.989 3.422 15.513 3.947 15.107 4.521C14.715 5.081 14.358 5.662 14.036 6.264C13.728 6.852 13.385 7.405 13.007 7.923C13.175 7.895 13.385 7.874 13.637 7.86C13.903 7.846 14.162 7.825 14.414 7.797C14.666 7.769 14.897 7.734 15.107 7.692C15.317 7.65 15.45 7.587 15.506 7.503C15.632 7.335 15.779 7.167 15.947 6.999C16.129 6.831 16.367 6.747 16.661 6.747C16.843 6.747 17.018 6.775 17.186 6.831C16.612 7.321 16.073 7.853 15.569 8.427C15.065 8.987 14.61 9.589 14.204 10.233L14.078 10.17C14.218 9.778 14.386 9.407 14.582 9.057C14.778 8.693 14.974 8.329 15.17 7.965C14.988 7.993 14.785 8.021 14.561 8.049C14.351 8.063 14.141 8.084 13.931 8.112C13.721 8.126 13.525 8.14 13.343 8.154C13.161 8.168 13.014 8.182 12.902 8.196C12.398 9.036 11.852 9.869 11.264 10.695C10.69 11.521 10.046 12.27 9.332 12.942C8.618 13.6 7.82 14.139 6.938 14.559C6.056 14.965 5.062 15.168 3.956 15.168C3.578 15.168 3.172 15.119 2.738 15.021C2.318 14.923 1.926 14.769 1.562 14.559C1.198 14.349 0.897 14.083 0.659 13.761C0.421 13.439 0.302 13.054 0.302 12.606C0.302 12.326 0.379 12.067 0.533 11.829C0.701 11.591 0.939 11.472 1.247 11.472C1.471 11.472 1.639 11.542 1.751 11.682C1.877 11.822 1.94 11.997 1.94 12.207C1.94 12.403 1.891 12.578 1.793 12.732C1.695 12.872 1.548 12.942 1.352 12.942C1.268 12.942 1.198 12.935 1.142 12.921C1.142 12.963 1.156 13.096 1.184 13.32C1.226 13.53 1.338 13.754 1.52 13.992C1.702 14.23 1.989 14.447 2.381 14.643C2.787 14.825 3.347 14.916 4.061 14.916C4.971 14.916 5.804 14.692 6.56 14.244C7.316 13.782 8.002 13.215 8.618 12.543C9.234 11.871 9.787 11.143 10.277 10.359C10.781 9.575 11.236 8.861 11.642 8.217H10.823ZM23.4717 7.776H24.8367C24.3187 8.504 23.8217 9.211 23.3457 9.897C22.8697 10.583 22.4427 11.22 22.0647 11.808C21.7007 12.382 21.4067 12.893 21.1827 13.341C20.9587 13.775 20.8467 14.118 20.8467 14.37C20.8467 14.734 21.0357 14.916 21.4137 14.916C21.7077 14.916 22.0787 14.776 22.5267 14.496C22.9887 14.202 23.4857 13.803 24.0177 13.299C24.5497 12.795 25.0957 12.207 25.6557 11.535C26.2157 10.863 26.7477 10.149 27.2517 9.393L27.3777 9.435C26.9997 10.009 26.5517 10.632 26.0337 11.304C25.5297 11.962 24.9977 12.578 24.4377 13.152C23.8777 13.726 23.3177 14.209 22.7577 14.601C22.1977 14.979 21.6727 15.168 21.1827 15.168C20.7767 15.168 20.4757 15.07 20.2797 14.874C20.0977 14.664 20.0067 14.419 20.0067 14.139C20.0067 13.943 20.0347 13.754 20.0907 13.572C20.1607 13.376 20.2307 13.18 20.3007 12.984L20.2587 12.963C20.0767 13.159 19.8457 13.39 19.5657 13.656C19.2997 13.908 19.0057 14.146 18.6837 14.37C18.3757 14.594 18.0537 14.783 17.7177 14.937C17.3817 15.091 17.0597 15.168 16.7517 15.168C16.2337 15.168 15.8697 15.007 15.6597 14.685C15.4497 14.363 15.3447 13.999 15.3447 13.593C15.3447 13.019 15.5267 12.389 15.8907 11.703C16.2547 11.003 16.7167 10.352 17.2767 9.75C17.8367 9.134 18.4457 8.623 19.1037 8.217C19.7617 7.811 20.3847 7.608 20.9727 7.608C21.2527 7.608 21.4977 7.65 21.7077 7.734C21.9177 7.804 22.0927 7.909 22.2327 8.049C22.3727 8.175 22.4777 8.322 22.5477 8.49C22.6317 8.658 22.6947 8.833 22.7367 9.015H22.7787L23.4717 7.776ZM16.6047 13.656C16.6047 13.978 16.6677 14.23 16.7937 14.412C16.9337 14.58 17.1227 14.664 17.3607 14.664C17.5987 14.664 17.8787 14.58 18.2007 14.412C18.5227 14.23 18.8587 13.992 19.2087 13.698C19.5587 13.404 19.9017 13.068 20.2377 12.69C20.5877 12.298 20.8957 11.885 21.1617 11.451C21.4277 11.017 21.6447 10.576 21.8127 10.128C21.9807 9.68 22.0647 9.253 22.0647 8.847C22.0647 8.525 21.9737 8.28 21.7917 8.112C21.6097 7.944 21.3857 7.86 21.1197 7.86C20.6997 7.86 20.2307 8.042 19.7127 8.406C19.1947 8.77 18.7047 9.239 18.2427 9.813C17.7807 10.373 17.3887 10.996 17.0667 11.682C16.7587 12.368 16.6047 13.026 16.6047 13.656ZM29.2958 7.776L26.5238 11.619L26.5658 11.661C26.8598 11.311 27.2028 10.905 27.5948 10.443C27.9868 9.967 28.4068 9.519 28.8548 9.099C29.3028 8.679 29.7648 8.329 30.2408 8.049C30.7308 7.755 31.2138 7.608 31.6898 7.608C32.1098 7.608 32.4318 7.727 32.6558 7.965C32.8938 8.189 33.0128 8.483 33.0128 8.847C33.0128 9.071 32.9288 9.337 32.7608 9.645C32.6068 9.953 32.4108 10.282 32.1728 10.632C31.9348 10.982 31.6758 11.339 31.3958 11.703C31.1158 12.067 30.8568 12.417 30.6188 12.753C30.3808 13.075 30.1778 13.376 30.0098 13.656C29.8558 13.922 29.7788 14.146 29.7788 14.328C29.7788 14.72 29.9748 14.916 30.3668 14.916C30.8148 14.916 31.2908 14.769 31.7948 14.475C32.2988 14.167 32.9008 13.656 33.6008 12.942C33.8808 12.662 34.1608 12.354 34.4408 12.018C34.7348 11.682 35.0148 11.353 35.2808 11.031C35.5468 10.695 35.7848 10.38 35.9948 10.086C36.2188 9.792 36.3938 9.547 36.5198 9.351L36.6668 9.435C36.3868 9.855 36.0228 10.359 35.5748 10.947C35.1408 11.521 34.6648 12.088 34.1468 12.648C33.8388 12.984 33.5238 13.306 33.2018 13.614C32.8798 13.922 32.5578 14.195 32.2358 14.433C31.9138 14.657 31.5918 14.839 31.2698 14.979C30.9618 15.105 30.6538 15.168 30.3458 15.168C29.9398 15.168 29.6038 15.056 29.3378 14.832C29.0718 14.608 28.9388 14.3 28.9388 13.908C28.9388 13.488 29.1068 13.033 29.4428 12.543C29.7788 12.039 30.1498 11.535 30.5558 11.031C30.9618 10.527 31.3328 10.044 31.6688 9.582C32.0048 9.12 32.1728 8.714 32.1728 8.364C32.1728 8.196 32.1168 8.07 32.0048 7.986C31.8928 7.902 31.7458 7.86 31.5638 7.86C31.2138 7.86 30.8218 7.993 30.3878 8.259C29.9538 8.511 29.5058 8.854 29.0438 9.288C28.5958 9.708 28.1408 10.184 27.6788 10.716C27.2308 11.234 26.8108 11.759 26.4188 12.291C26.0268 12.809 25.6768 13.313 25.3688 13.803C25.0608 14.279 24.8298 14.678 24.6758 15H23.3738C23.7378 14.384 24.1298 13.761 24.5498 13.131C24.9558 12.487 25.3618 11.857 25.7678 11.241C26.1738 10.611 26.5588 10.009 26.9228 9.435C27.3008 8.847 27.6368 8.315 27.9308 7.839L29.2958 7.776ZM40.2228 5.34L38.5638 7.776H41.3358L41.2098 8.028H38.3958C37.8358 8.938 37.3318 9.729 36.8838 10.401C36.4498 11.059 36.0788 11.633 35.7708 12.123C35.4768 12.599 35.2528 13.005 35.0988 13.341C34.9448 13.663 34.8678 13.95 34.8678 14.202C34.8678 14.468 34.9588 14.657 35.1408 14.769C35.3228 14.867 35.5328 14.916 35.7708 14.916C36.2748 14.916 36.8278 14.727 37.4298 14.349C38.0458 13.957 38.6548 13.481 39.2568 12.921C39.8588 12.361 40.4328 11.766 40.9788 11.136C41.5248 10.506 41.9868 9.939 42.3648 9.435L42.4908 9.519C42.0148 10.121 41.4898 10.758 40.9158 11.43C40.3558 12.088 39.7748 12.697 39.1728 13.257C38.5708 13.803 37.9618 14.258 37.3458 14.622C36.7438 14.986 36.1698 15.168 35.6238 15.168C35.1898 15.168 34.8118 15.035 34.4898 14.769C34.1818 14.503 34.0278 14.132 34.0278 13.656C34.0278 13.334 34.1188 12.977 34.3008 12.585C34.4828 12.179 34.7208 11.745 35.0148 11.283C35.3088 10.821 35.6378 10.317 36.0018 9.771C36.3798 9.225 36.7648 8.644 37.1568 8.028H36.0228L36.1488 7.776H37.3248L38.9628 5.34H40.2228ZM47.9786 7.776H49.3436C48.8256 8.504 48.3286 9.211 47.8526 9.897C47.3766 10.583 46.9496 11.22 46.5716 11.808C46.2076 12.382 45.9136 12.893 45.6896 13.341C45.4656 13.775 45.3536 14.118 45.3536 14.37C45.3536 14.734 45.5426 14.916 45.9206 14.916C46.2146 14.916 46.5856 14.776 47.0336 14.496C47.4956 14.202 47.9926 13.803 48.5246 13.299C49.0566 12.795 49.6026 12.207 50.1626 11.535C50.7226 10.863 51.2546 10.149 51.7586 9.393L51.8846 9.435C51.5066 10.009 51.0586 10.632 50.5406 11.304C50.0366 11.962 49.5046 12.578 48.9446 13.152C48.3846 13.726 47.8246 14.209 47.2646 14.601C46.7046 14.979 46.1796 15.168 45.6896 15.168C45.2836 15.168 44.9826 15.07 44.7866 14.874C44.6046 14.664 44.5136 14.419 44.5136 14.139C44.5136 13.943 44.5416 13.754 44.5976 13.572C44.6676 13.376 44.7376 13.18 44.8076 12.984L44.7656 12.963C44.5836 13.159 44.3526 13.39 44.0726 13.656C43.8066 13.908 43.5126 14.146 43.1906 14.37C42.8826 14.594 42.5606 14.783 42.2246 14.937C41.8886 15.091 41.5666 15.168 41.2586 15.168C40.7406 15.168 40.3766 15.007 40.1666 14.685C39.9566 14.363 39.8516 13.999 39.8516 13.593C39.8516 13.019 40.0336 12.389 40.3976 11.703C40.7616 11.003 41.2236 10.352 41.7836 9.75C42.3436 9.134 42.9526 8.623 43.6106 8.217C44.2686 7.811 44.8916 7.608 45.4796 7.608C45.7596 7.608 46.0046 7.65 46.2146 7.734C46.4246 7.804 46.5996 7.909 46.7396 8.049C46.8796 8.175 46.9846 8.322 47.0546 8.49C47.1386 8.658 47.2016 8.833 47.2436 9.015H47.2856L47.9786 7.776ZM41.1116 13.656C41.1116 13.978 41.1746 14.23 41.3006 14.412C41.4406 14.58 41.6296 14.664 41.8676 14.664C42.1056 14.664 42.3856 14.58 42.7076 14.412C43.0296 14.23 43.3656 13.992 43.7156 13.698C44.0656 13.404 44.4086 13.068 44.7446 12.69C45.0946 12.298 45.4026 11.885 45.6686 11.451C45.9346 11.017 46.1516 10.576 46.3196 10.128C46.4876 9.68 46.5716 9.253 46.5716 8.847C46.5716 8.525 46.4806 8.28 46.2986 8.112C46.1166 7.944 45.8926 7.86 45.6266 7.86C45.2066 7.86 44.7376 8.042 44.2196 8.406C43.7016 8.77 43.2116 9.239 42.7496 9.813C42.2876 10.373 41.8956 10.996 41.5736 11.682C41.2656 12.368 41.1116 13.026 41.1116 13.656ZM58.8216 9.582C58.4016 10.254 57.9116 10.926 57.3516 11.598C56.8056 12.256 56.2036 12.851 55.5456 13.383C54.8876 13.915 54.1666 14.349 53.3826 14.685C52.6126 15.007 51.7866 15.168 50.9046 15.168C50.5686 15.168 50.2536 15.126 49.9596 15.042C49.6656 14.958 49.4066 14.832 49.1826 14.664C48.9726 14.496 48.8046 14.286 48.6786 14.034C48.5386 13.768 48.4686 13.46 48.4686 13.11C48.4686 12.746 48.5876 12.417 48.8256 12.123C49.0636 11.829 49.3856 11.682 49.7916 11.682C50.0016 11.682 50.1696 11.738 50.2956 11.85C50.4356 11.948 50.5056 12.102 50.5056 12.312C50.5056 12.508 50.4566 12.676 50.3586 12.816C50.2606 12.956 50.1136 13.026 49.9176 13.026C49.7636 13.026 49.6376 12.984 49.5396 12.9C49.4556 12.816 49.3996 12.711 49.3716 12.585C49.2176 12.669 49.1126 12.795 49.0566 12.963C49.0006 13.117 48.9726 13.278 48.9726 13.446C48.9726 13.936 49.1546 14.307 49.5186 14.559C49.8966 14.797 50.3166 14.916 50.7786 14.916C51.0726 14.916 51.3246 14.86 51.5346 14.748C51.7586 14.622 51.9406 14.468 52.0806 14.286C52.2346 14.09 52.3466 13.866 52.4166 13.614C52.4866 13.362 52.5216 13.11 52.5216 12.858C52.5216 12.592 52.4726 12.319 52.3746 12.039C52.2906 11.745 52.1926 11.458 52.0806 11.178C51.9686 10.898 51.8636 10.625 51.7656 10.359C51.6676 10.079 51.6186 9.82 51.6186 9.582C51.6186 9.274 51.6816 9.001 51.8076 8.763C51.9336 8.511 52.1016 8.301 52.3116 8.133C52.5356 7.965 52.7876 7.839 53.0676 7.755C53.3476 7.657 53.6416 7.608 53.9496 7.608C54.5096 7.608 54.9646 7.734 55.3146 7.986C55.6646 8.224 55.8396 8.546 55.8396 8.952C55.8396 9.316 55.6996 9.582 55.4196 9.75C55.1536 9.918 54.8526 10.002 54.5166 10.002C54.6006 9.848 54.6706 9.666 54.7266 9.456C54.7966 9.232 54.8316 9.029 54.8316 8.847C54.8316 8.567 54.7406 8.336 54.5586 8.154C54.3906 7.958 54.1456 7.86 53.8236 7.86C53.4176 7.86 53.1166 7.986 52.9206 8.238C52.7246 8.476 52.6266 8.77 52.6266 9.12C52.6266 9.428 52.6756 9.722 52.7736 10.002C52.8856 10.282 53.0116 10.562 53.1516 10.842C53.2776 11.122 53.3896 11.409 53.4876 11.703C53.5996 11.997 53.6556 12.326 53.6556 12.69C53.6556 12.956 53.5926 13.215 53.4666 13.467C53.3546 13.705 53.2006 13.929 53.0046 14.139C52.8086 14.335 52.5846 14.503 52.3326 14.643C52.0946 14.783 51.8496 14.874 51.5976 14.916L51.6396 14.958C52.3956 14.874 53.1166 14.657 53.8026 14.307C54.4886 13.943 55.1256 13.509 55.7136 13.005C56.3156 12.487 56.8686 11.927 57.3726 11.325C57.8766 10.709 58.3176 10.107 58.6956 9.519L58.8216 9.582ZM62.4758 8.448C62.4758 8.252 62.4198 8.105 62.3078 8.007C62.2098 7.909 62.0838 7.86 61.9298 7.86C61.6358 7.86 61.3138 7.979 60.9638 8.217C60.6278 8.441 60.2918 8.728 59.9558 9.078C59.6198 9.414 59.3118 9.778 59.0318 10.17C58.7658 10.562 58.5628 10.912 58.4228 11.22C58.7308 11.164 59.1158 11.059 59.5778 10.905C60.0398 10.737 60.4808 10.534 60.9008 10.296C61.3348 10.058 61.7058 9.785 62.0138 9.477C62.3218 9.155 62.4758 8.812 62.4758 8.448ZM65.8778 9.561C65.6678 9.911 65.4018 10.296 65.0798 10.716C64.7718 11.136 64.4148 11.556 64.0088 11.976C63.6168 12.382 63.1898 12.781 62.7278 13.173C62.2798 13.551 61.8108 13.894 61.3208 14.202C60.8308 14.496 60.3338 14.734 59.8298 14.916C59.3398 15.084 58.8568 15.168 58.3808 15.168C57.7928 15.168 57.3378 15.021 57.0158 14.727C56.6938 14.419 56.5328 13.985 56.5328 13.425C56.5328 12.809 56.7148 12.165 57.0788 11.493C57.4568 10.807 57.9328 10.177 58.5068 9.603C59.0808 9.029 59.7108 8.553 60.3968 8.175C61.0828 7.797 61.7408 7.608 62.3708 7.608C62.7208 7.608 62.9938 7.685 63.1898 7.839C63.3858 7.979 63.4838 8.189 63.4838 8.469C63.4838 8.805 63.3018 9.134 62.9378 9.456C62.5738 9.764 62.1258 10.051 61.5938 10.317C61.0758 10.569 60.5158 10.8 59.9138 11.01C59.3118 11.206 58.7798 11.353 58.3178 11.451C58.1638 11.731 58.0378 12.046 57.9398 12.396C57.8418 12.746 57.7928 13.096 57.7928 13.446C57.7928 13.614 57.8068 13.782 57.8348 13.95C57.8768 14.104 57.9328 14.251 58.0028 14.391C58.0868 14.517 58.1918 14.622 58.3178 14.706C58.4578 14.79 58.6258 14.832 58.8218 14.832C59.2838 14.832 59.8228 14.685 60.4388 14.391C61.0688 14.083 61.7058 13.677 62.3498 13.173C62.9938 12.669 63.6098 12.095 64.1978 11.451C64.7858 10.807 65.2898 10.142 65.7098 9.456L65.8778 9.561ZM69.4689 8.448C69.4689 8.252 69.4129 8.105 69.3009 8.007C69.2029 7.909 69.0769 7.86 68.9229 7.86C68.6289 7.86 68.3069 7.979 67.9569 8.217C67.6209 8.441 67.2849 8.728 66.9489 9.078C66.6129 9.414 66.3049 9.778 66.0249 10.17C65.7589 10.562 65.5559 10.912 65.4159 11.22C65.7239 11.164 66.1089 11.059 66.5709 10.905C67.0329 10.737 67.4739 10.534 67.8939 10.296C68.3279 10.058 68.6989 9.785 69.0069 9.477C69.3149 9.155 69.4689 8.812 69.4689 8.448ZM72.8709 9.561C72.6609 9.911 72.3949 10.296 72.0729 10.716C71.7649 11.136 71.4079 11.556 71.0019 11.976C70.6099 12.382 70.1829 12.781 69.7209 13.173C69.2729 13.551 68.8039 13.894 68.3139 14.202C67.8239 14.496 67.3269 14.734 66.8229 14.916C66.3329 15.084 65.8499 15.168 65.3739 15.168C64.7859 15.168 64.3309 15.021 64.0089 14.727C63.6869 14.419 63.5259 13.985 63.5259 13.425C63.5259 12.809 63.7079 12.165 64.0719 11.493C64.4499 10.807 64.9259 10.177 65.4999 9.603C66.0739 9.029 66.7039 8.553 67.3899 8.175C68.0759 7.797 68.7339 7.608 69.3639 7.608C69.7139 7.608 69.9869 7.685 70.1829 7.839C70.3789 7.979 70.4769 8.189 70.4769 8.469C70.4769 8.805 70.2949 9.134 69.9309 9.456C69.5669 9.764 69.1189 10.051 68.5869 10.317C68.0689 10.569 67.5089 10.8 66.9069 11.01C66.3049 11.206 65.7729 11.353 65.3109 11.451C65.1569 11.731 65.0309 12.046 64.9329 12.396C64.8349 12.746 64.7859 13.096 64.7859 13.446C64.7859 13.614 64.7999 13.782 64.8279 13.95C64.8699 14.104 64.9259 14.251 64.9959 14.391C65.0799 14.517 65.1849 14.622 65.3109 14.706C65.4509 14.79 65.6189 14.832 65.8149 14.832C66.2769 14.832 66.8159 14.685 67.4319 14.391C68.0619 14.083 68.6989 13.677 69.3429 13.173C69.9869 12.669 70.6029 12.095 71.1909 11.451C71.7789 10.807 72.2829 10.142 72.7029 9.456L72.8709 9.561ZM84.3791 0.467999C83.8331 1.336 83.2381 2.253 82.5941 3.219C81.9501 4.185 81.3061 5.144 80.6621 6.096C80.0181 7.048 79.3951 7.972 78.7931 8.868C78.2051 9.75 77.6801 10.562 77.2181 11.304C76.7561 12.046 76.3851 12.69 76.1051 13.236C75.8391 13.768 75.7061 14.16 75.7061 14.412C75.7061 14.566 75.7411 14.692 75.8111 14.79C75.8951 14.874 76.0141 14.916 76.1681 14.916C76.5181 14.916 76.9171 14.776 77.3651 14.496C77.8131 14.216 78.3521 13.775 78.9821 13.173C79.5281 12.641 80.0601 12.053 80.5781 11.409C81.0961 10.751 81.5441 10.107 81.9221 9.477L82.0901 9.561C81.9641 9.785 81.7961 10.051 81.5861 10.359C81.3901 10.653 81.1661 10.961 80.9141 11.283C80.6761 11.605 80.4171 11.934 80.1371 12.27C79.8571 12.592 79.5701 12.9 79.2761 13.194C78.7161 13.768 78.1631 14.244 77.6171 14.622C77.0711 14.986 76.5671 15.168 76.1051 15.168C75.6571 15.168 75.3211 15.077 75.0971 14.895C74.8871 14.699 74.7821 14.454 74.7821 14.16C74.7821 13.894 74.8381 13.635 74.9501 13.383C75.0621 13.131 75.1741 12.907 75.2861 12.711L75.2441 12.69C75.0201 12.942 74.7681 13.215 74.4881 13.509C74.2221 13.789 73.9351 14.055 73.6271 14.307C73.3191 14.559 72.9901 14.769 72.6401 14.937C72.3041 15.091 71.9541 15.168 71.5901 15.168C71.0861 15.168 70.6941 15.014 70.4141 14.706C70.1481 14.398 70.0151 14.034 70.0151 13.614C70.0151 13.026 70.2181 12.382 70.6241 11.682C71.0301 10.982 71.5341 10.331 72.1361 9.729C72.7521 9.127 73.4101 8.623 74.1101 8.217C74.8101 7.811 75.4611 7.608 76.0631 7.608C76.5111 7.608 76.8681 7.748 77.1341 8.028C77.4001 8.308 77.5261 8.665 77.5121 9.099H77.5751L82.9931 0.467999H84.3791ZM76.9241 9.12C76.9241 8.784 76.8681 8.49 76.7561 8.238C76.6441 7.986 76.3851 7.86 75.9791 7.86C75.6991 7.86 75.3841 7.958 75.0341 8.154C74.6981 8.35 74.3551 8.609 74.0051 8.931C73.6551 9.253 73.3121 9.624 72.9761 10.044C72.6541 10.45 72.3671 10.87 72.1151 11.304C71.8631 11.724 71.6601 12.137 71.5061 12.543C71.3521 12.949 71.2751 13.313 71.2751 13.635C71.2751 13.929 71.3311 14.174 71.4431 14.37C71.5551 14.566 71.7581 14.664 72.0521 14.664C72.3041 14.664 72.5911 14.566 72.9131 14.37C73.2491 14.174 73.5991 13.922 73.9631 13.614C74.3271 13.292 74.6841 12.928 75.0341 12.522C75.3841 12.116 75.6991 11.71 75.9791 11.304C76.2591 10.898 76.4831 10.506 76.6511 10.128C76.8331 9.736 76.9241 9.4 76.9241 9.12Z" fill="black"/>
</svg>
