<svg width="20" height="20" viewBox="0 0 20 20" fill="none" xmlns="http://www.w3.org/2000/svg">
<path d="M4.51934 9.91263L2.2587 12.1516L0 9.91263L2.2587 7.67367L4.51934 9.91263ZM10 4.47598L13.8707 8.31476L16.1293 6.0758L10 0L3.87065 6.0758L6.12935 8.31476L10 4.47598ZM17.7433 7.67367L15.4846 9.91263L17.7433 12.1516L20 9.91263L17.7433 7.67367ZM10 15.3493L6.12935 11.5124L3.87065 13.7495L10 19.8253L16.1293 13.7495L13.8707 11.5124L10 15.3493ZM10 12.1516L12.2587 9.91263L10 7.67367L7.7413 9.91263L10 12.1516Z" fill="#F0B90B"/>
</svg>
