<svg width="31" height="31" viewBox="0 0 31 31" fill="none" xmlns="http://www.w3.org/2000/svg">
<path fill-rule="evenodd" clip-rule="evenodd" d="M16.2342 24.6477H1.60563H0.996094V25.2572V27.6953V28.3049H1.60563H16.2342H16.8437V27.6953V25.2572V24.6477H16.2342ZM2.21517 25.8668H15.6247V27.0858H2.21517V25.8668Z" fill="#484848"/>
<path d="M3.43457 22.8191H14.4061V24.0382H3.43457V22.8191Z" fill="#484848"/>
<path d="M4.58577 13.9954L11.0599 15.7389L10.7456 16.9152L4.27148 15.1716L4.58577 13.9954Z" fill="#484848"/>
<path d="M7.28011 3.99003L13.7542 5.73357L13.4399 6.9098L6.96582 5.1662L7.28011 3.99003Z" fill="#484848"/>
<path fill-rule="evenodd" clip-rule="evenodd" d="M7.07246 2.65915L3.30991 16.1818C3.22283 16.4948 3.27104 16.8138 3.41891 17.0756C3.5673 17.3384 3.81644 17.5452 4.13041 17.6326L9.48879 19.1235L9.48816 19.1258L9.48821 19.1258L9.48884 19.1235C9.80177 19.2106 10.1208 19.1624 10.3826 19.0145C10.6454 18.8661 10.8523 18.617 10.9396 18.3031L10.9419 18.3037L10.9419 18.3037L10.9396 18.303L14.7022 4.78041C14.7892 4.46745 14.741 4.1484 14.5932 3.88662C14.4447 3.62383 14.1956 3.41694 13.8817 3.32963L8.5233 1.8387C8.21036 1.75164 7.89129 1.79987 7.62944 1.9477C7.36667 2.09609 7.15981 2.34518 7.07246 2.65915ZM4.48957 16.4721L8.23295 3.01835V3.01833L13.5225 4.49009L9.77911 17.9439L4.48957 16.4721Z" fill="#484848"/>
<path d="M12.3998 10.7647C12.075 10.6779 11.7413 10.8708 11.6546 11.1956C11.5678 11.5204 11.7607 11.8541 12.0855 11.9409L29.5327 16.6367C29.8575 16.7235 30.1911 16.5305 30.2779 16.2057C30.3647 15.8809 30.1717 15.5473 29.8469 15.4605L12.3998 10.7647Z" fill="#484848"/>
</svg>
