<svg width="58" height="58" viewBox="0 0 58 58" fill="none" xmlns="http://www.w3.org/2000/svg">
<g filter="url(#filter0_d)">
<path fill-rule="evenodd" clip-rule="evenodd" d="M47.8328 19.8798L53.1939 20.5464C53.6567 20.602 53.9994 20.9909 54 21.4542V28.5463C54 29.0091 53.6572 29.398 53.1945 29.4536L47.8334 30.1202C47.389 31.7402 46.759 33.268 45.9351 34.6941L49.2589 38.9535C49.5462 39.324 49.5089 39.8423 49.1851 40.1757L46.6756 42.6756L44.1757 45.1851C43.8423 45.5089 43.324 45.5462 42.9535 45.2589L38.6941 41.9351C37.2685 42.7595 35.7408 43.389 34.1202 43.8334L33.4536 49.1945C33.398 49.6572 33.0091 50 32.5463 50H25.4537C24.9909 50 24.602 49.6572 24.5464 49.1945L23.8798 43.8334C22.2598 43.389 20.732 42.759 19.3059 41.9351L15.0465 45.2589C14.676 45.5462 14.1577 45.5089 13.8243 45.1851L11.3244 42.6756L8.81495 40.1757C8.49106 39.8423 8.45384 39.324 8.74106 38.9535L12.0649 34.6941C11.2405 33.2685 10.611 31.7408 10.1666 30.1202L4.80555 29.4536C4.34277 29.398 4 29.0091 4 28.5463V21.4537C4 20.9909 4.34277 20.602 4.80555 20.5464L10.1666 19.8798C10.611 18.2598 11.241 16.732 12.0649 15.3059L8.74106 11.0465C8.45384 10.676 8.49106 10.1577 8.81495 9.82434L11.3244 7.32436L13.8243 4.81495C14.1577 4.49106 14.676 4.45384 15.0465 4.74106L19.3059 8.06491C20.7315 7.24047 22.2592 6.61104 23.8798 6.1666L24.5464 0.805547C24.602 0.342774 24.9909 0 25.4537 0H32.5458C33.0086 0 33.3975 0.342774 33.453 0.805547L34.1197 6.1666C35.7396 6.61104 37.2674 7.24103 38.6935 8.06491L42.9529 4.74106C43.3235 4.45384 43.8418 4.49106 44.1751 4.81495L46.6751 7.32436L49.1845 9.82434C49.5084 10.1577 49.5456 10.676 49.2584 11.0465L45.9345 15.3059C46.759 16.7315 47.3884 18.2592 47.8328 19.8798ZM20.5737 25.0003C20.5737 29.6486 24.3514 33.4263 28.9997 33.4263C33.648 33.4263 37.4257 29.6486 37.4257 25.0003C37.4257 20.352 33.648 16.5743 28.9997 16.5743C24.3514 16.5743 20.5737 20.352 20.5737 25.0003Z" fill="black"/>
</g>
<defs>
<filter id="filter0_d" x="0" y="0" width="58" height="58" filterUnits="userSpaceOnUse" color-interpolation-filters="sRGB">
<feFlood flood-opacity="0" result="BackgroundImageFix"/>
<feColorMatrix in="SourceAlpha" type="matrix" values="0 0 0 0 0 0 0 0 0 0 0 0 0 0 0 0 0 0 127 0" result="hardAlpha"/>
<feOffset dy="4"/>
<feGaussianBlur stdDeviation="2"/>
<feComposite in2="hardAlpha" operator="out"/>
<feColorMatrix type="matrix" values="0 0 0 0 0 0 0 0 0 0 0 0 0 0 0 0 0 0 0.25 0"/>
<feBlend mode="normal" in2="BackgroundImageFix" result="effect1_dropShadow"/>
<feBlend mode="normal" in="SourceGraphic" in2="effect1_dropShadow" result="shape"/>
</filter>
</defs>
</svg>
