<svg width="21" height="18" viewBox="0 0 21 18" fill="none" xmlns="http://www.w3.org/2000/svg">
<path d="M10.5071 18C10.4215 17.9992 10.337 17.9812 10.2584 17.9469C10.1798 17.9125 10.1087 17.8627 10.0492 17.8002L1.58695 9.1257C1.08974 8.63531 0.693396 8.04922 0.420977 7.40153C0.148558 6.75383 0.00550817 6.05749 0.000155963 5.35302C-0.00519624 4.64855 0.127256 3.95004 0.389801 3.29815C0.652347 2.64625 1.03974 2.05399 1.52943 1.55584C2.01913 1.05769 2.60134 0.663609 3.24217 0.396531C3.88301 0.129453 4.56966 -0.00528595 5.26217 0.000158656C5.95468 0.00560326 6.63921 0.151122 7.27591 0.428245C7.91261 0.705367 8.48876 1.10856 8.97083 1.61434L10.5071 3.17633L12.0425 1.61434C12.5253 1.11155 13.1013 0.711202 13.7372 0.436505C14.3732 0.161807 15.0564 0.0182184 15.7473 0.014058C16.4382 0.0098975 17.123 0.145248 17.7621 0.412268C18.4012 0.679287 18.9818 1.07267 19.4704 1.56961C19.9589 2.06656 20.3457 2.65719 20.6083 3.30729C20.8708 3.95739 21.0039 4.65403 20.9999 5.35684C20.9959 6.05965 20.8548 6.75467 20.5848 7.40161C20.3149 8.04856 19.9214 8.63457 19.4272 9.1257L10.9649 17.8002C10.9054 17.8627 10.8343 17.9125 10.7557 17.9469C10.6771 17.9812 10.5926 17.9992 10.5071 18ZM5.27926 1.38111C4.50377 1.38236 3.746 1.61712 3.10146 2.05579C2.45693 2.49446 1.95448 3.11742 1.65744 3.84614C1.36041 4.57485 1.28208 5.37671 1.43235 6.15064C1.58261 6.92457 1.95473 7.63593 2.50181 8.19505L10.5071 16.4046L18.5123 8.19505C19.2371 7.44333 19.6408 6.43096 19.6358 5.37804C19.6308 4.32512 19.2174 3.31678 18.4855 2.57224C17.7536 1.82771 16.7624 1.40717 15.7273 1.40207C14.6923 1.39697 13.6971 1.80771 12.9581 2.545L10.9649 4.57194C10.9058 4.63494 10.8349 4.6851 10.7563 4.71937C10.6776 4.75364 10.593 4.77131 10.5074 4.77131C10.4219 4.77131 10.3372 4.75364 10.2586 4.71937C10.18 4.6851 10.109 4.63494 10.05 4.57194L8.05671 2.54424C7.69304 2.17224 7.26008 1.87777 6.78317 1.67805C6.30626 1.47833 5.79499 1.37738 5.27926 1.38111Z" fill="black"/>
</svg>
