<svg width="20" height="20" viewBox="0 0 20 20" fill="none" xmlns="http://www.w3.org/2000/svg">
<path fill-rule="evenodd" clip-rule="evenodd" d="M6.48305 0.933977C3.38732 0.933977 0.869565 3.46335 0.869565 6.57337V8.59269C0.869565 11.3539 2.83678 13.6894 5.54664 14.1473L5.89342 14.2062V17.4557L11.3951 14.2321H13.517C16.6131 14.2321 19.1304 11.7023 19.1304 8.59269V6.57337C19.1304 3.46335 16.6131 0.933977 13.517 0.933977H6.48305ZM5.04299 15.1193C2.09993 14.449 0 11.8055 0 8.70229V6.64881C0 3.01805 2.90216 0.0644122 6.46966 0.0644122H13.5303C17.0978 0.0644122 20 3.01805 20 6.64881V8.70229C20 12.3331 17.0978 15.2867 13.5303 15.2867H11.6262L5.04299 19.1948V15.1193Z" fill="black"/>
</svg>
