<svg width="28" height="24" viewBox="0 0 28 24" fill="none" xmlns="http://www.w3.org/2000/svg">
<path d="M27.0477 11.5821H27.5477V11.0821H27.0477V11.5821ZM27.0477 16.4755V16.9755H27.5477V16.4755H27.0477ZM25.4229 17.2911H25.9229V16.7911H25.4229V17.2911ZM11.326 2.6108L11.5242 3.06985L11.326 2.1108V2.6108ZM9.43691 3.42637V3.92637H9.54024L9.6351 3.88542L9.43691 3.42637ZM25.4229 5.87308H25.9229V5.37308H25.4229V5.87308ZM25.4229 10.7665V11.2665H25.9229V10.7665H25.4229ZM7.56816 5.01668L7.40879 4.54276L7.56816 5.51668V5.01668ZM19.5119 1L19.967 0.792877L19.7801 0.382284L19.3525 0.526082L19.5119 1ZM21.34 5.01668V5.51668H22.117L21.7951 4.80956L21.34 5.01668ZM21.0557 2.63114V2.13114H20.2754L20.6014 2.84002L21.0557 2.63114ZM24.7525 3.42632V3.92632H25.8863L25.1217 3.08915L24.7525 3.42632ZM21.4213 3.42632L20.967 3.6352L21.1009 3.92632H21.4213V3.42632ZM17.2773 15.9755C16.6615 15.9755 16.1523 15.4671 16.1523 14.8443H15.1523C15.1523 16.0158 16.1057 16.9755 17.2773 16.9755V15.9755ZM16.1523 14.8443V13.2132H15.1523V14.8443H16.1523ZM16.1523 13.2132C16.1523 12.5904 16.6615 12.0821 17.2773 12.0821V11.0821C16.1057 11.0821 15.1523 12.0417 15.1523 13.2132H16.1523ZM17.2773 12.0821H27.0477V11.0821H17.2773V12.0821ZM26.5477 11.5821V16.4755H27.5477V11.5821H26.5477ZM27.0477 15.9755H17.2773V16.9755H27.0477V15.9755ZM18.4961 12.3664C17.5479 12.3664 16.7773 13.1426 16.7773 14.0898H17.7773C17.7773 13.6913 18.1037 13.3664 18.4961 13.3664V12.3664ZM16.7773 14.0898C16.7773 15.037 17.5479 15.8132 18.4961 15.8132V14.8132C18.1037 14.8132 17.7773 14.4883 17.7773 14.0898H16.7773ZM18.4961 15.8132C19.4443 15.8132 20.2148 15.037 20.2148 14.0898H19.2148C19.2148 14.4883 18.8885 14.8132 18.4961 14.8132V15.8132ZM20.2148 14.0898C20.2148 13.1426 19.4443 12.3664 18.4961 12.3664V13.3664C18.8885 13.3664 19.2148 13.6913 19.2148 14.0898H20.2148ZM14.3197 13.2132V14.8443H15.3197V13.2132H14.3197ZM14.3197 14.8443C14.3197 16.4644 15.6387 17.7911 17.2572 17.7911V16.7911C16.1945 16.7911 15.3197 15.9157 15.3197 14.8443H14.3197ZM17.2572 17.7911H25.4229V16.7911H17.2572V17.7911ZM24.9229 17.2911V20.5533H25.9229V17.2911H24.9229ZM24.9229 20.5533C24.9229 21.6247 24.0481 22.5 22.9854 22.5V23.5C24.6039 23.5 25.9229 22.1734 25.9229 20.5533H24.9229ZM22.9854 22.5H3.48535V23.5H22.9854V22.5ZM3.48535 22.5C2.42265 22.5 1.54785 21.6247 1.54785 20.5533H0.547852C0.547852 22.1734 1.86681 23.5 3.48535 23.5V22.5ZM1.54785 20.5533V5.05751H0.547852V20.5533H1.54785ZM1.54785 5.05751C1.54785 3.98618 2.42265 3.1108 3.48535 3.1108V2.1108C1.86681 2.1108 0.547852 3.43746 0.547852 5.05751H1.54785ZM3.48535 3.1108H11.326V2.1108H3.48535V3.1108ZM11.1278 2.15175L9.23873 2.96732L9.6351 3.88542L11.5242 3.06985L11.1278 2.15175ZM9.43691 2.92637H3.0791V3.92637H9.43691V2.92637ZM3.0791 2.92637C2.13087 2.92637 1.36035 3.70252 1.36035 4.64972H2.36035C2.36035 4.25124 2.68671 3.92637 3.0791 3.92637V2.92637ZM1.36035 4.64972C1.36035 5.59693 2.13087 6.37308 3.0791 6.37308V5.37308C2.68671 5.37308 2.36035 5.04821 2.36035 4.64972H1.36035ZM3.0791 6.37308H25.4229V5.37308H3.0791V6.37308ZM24.9229 5.87308V10.7665H25.9229V5.87308H24.9229ZM25.4229 10.2665H17.2775V11.2665H25.4229V10.2665ZM17.2775 10.2665C15.6414 10.2665 14.3197 11.5905 14.3197 13.2132H15.3197C15.3197 12.1446 16.1918 11.2665 17.2775 11.2665V10.2665ZM7.72754 5.4906L19.6713 1.47392L19.3525 0.526082L7.40879 4.54276L7.72754 5.4906ZM19.0568 1.20712L20.885 5.22381L21.7951 4.80956L19.967 0.792877L19.0568 1.20712ZM21.34 4.51668H7.56816V5.51668H21.34V4.51668ZM21.0557 3.13114H22.965V2.13114H21.0557V3.13114ZM22.965 3.13114C23.5268 3.13114 24.0252 3.37131 24.3833 3.76349L25.1217 3.08915C24.5861 2.50265 23.8251 2.13114 22.965 2.13114V3.13114ZM24.7525 2.92632H21.4213V3.92632H24.7525V2.92632ZM21.8756 3.21744L21.5099 2.42226L20.6014 2.84002L20.967 3.6352L21.8756 3.21744Z" fill="#969696"/>
</svg>
