<svg width="15" height="16" viewBox="0 0 15 16" fill="none" xmlns="http://www.w3.org/2000/svg">
<path d="M6.70618 9C5.10802 8.39382 4.27889 6.74869 5.81315 4.80888C7.34741 2.86909 8.79633 1.77796 9.32904 1.47487C10.8468 0.522555 12.4293 1.1081 13.3911 2.29759C13.4095 2.32036 13.4283 2.34101 13.4481 2.36262C13.6785 2.61273 15.1009 4.38244 12.2058 7.23364" stroke="#666666" stroke-linecap="square"/>
<path d="M8.14707 7C9.80362 7.52417 10.7331 9.10777 9.27571 11.0905C7.81831 13.0731 6.4029 14.2153 5.87738 14.5386C4.37909 15.5509 2.67545 14.709 1.69674 13.8173C1.68533 13.8069 1.67477 13.7979 1.66313 13.7877C1.47394 13.6225 -0.207796 12.0058 2.64968 8.99391" stroke="#666666" stroke-linecap="square"/>
</svg>
