<svg width="19" height="24" viewBox="0 0 19 24" fill="none" xmlns="http://www.w3.org/2000/svg">
<path d="M11.1799 9.91882H17.2587C17.4968 9.91825 17.7233 10.0269 17.8784 10.2162C18.0335 10.4055 18.1017 10.6565 18.065 10.903L16.4993 21.2407C16.3491 22.2518 15.5189 22.998 14.5422 22.9999H4.58041C3.60369 22.998 2.77354 22.2518 2.62327 21.2407L1.05757 10.903C1.02058 10.6543 1.09029 10.4013 1.24804 10.2115C1.40578 10.0217 1.63548 9.91461 1.87565 9.91882H7.86839" stroke="#969696" stroke-linecap="round" stroke-linejoin="round"/>
<path fill-rule="evenodd" clip-rule="evenodd" d="M11.1797 9.91915C11.1797 10.6207 10.7763 11.2532 10.1576 11.5217C9.53886 11.7902 8.8267 11.6418 8.35317 11.1457C7.87963 10.6496 7.73797 9.90352 7.99425 9.25535C8.25052 8.60719 8.85426 8.18457 9.52395 8.18457C10.4375 8.18682 11.1775 8.9621 11.1797 9.91915Z" stroke="#969696" stroke-linecap="round" stroke-linejoin="round"/>
<path d="M8.22852 8.84455V1H10.808V8.84455" stroke="#969696" stroke-linecap="round" stroke-linejoin="round"/>
<path d="M1.53906 14.0361H17.5954" stroke="#969696" stroke-linecap="round" stroke-linejoin="round"/>
<path d="M2.00098 17.1279H17.1335" stroke="#969696" stroke-linecap="round" stroke-linejoin="round"/>
<path d="M2.46289 20.2155H16.6717" stroke="#969696" stroke-linecap="round" stroke-linejoin="round"/>
<path d="M5.69669 14.0359V20.2156" stroke="#969696" stroke-linecap="round" stroke-linejoin="round"/>
<path d="M9.52384 14.04V20.2197" stroke="#969696" stroke-linecap="round" stroke-linejoin="round"/>
<path d="M13.4613 14.0359V20.2156" stroke="#969696" stroke-linecap="round" stroke-linejoin="round"/>
</svg>
