<svg width="26" height="27" viewBox="0 0 26 27" fill="none" xmlns="http://www.w3.org/2000/svg">
<path d="M13 11.2461V24.7351L13.346 24.6911L26 26.3821V11.4181L13 11.2461Z" fill="#22CAC8"/>
<path d="M0 11.2921V26.3821L13 24.7351V11.2461L0 11.2921Z" fill="#6AE1DB"/>
<path d="M0 26.3822H13L14.872 23.7172L13 15.8872L0 26.3822Z" fill="#22CAC8"/>
<path d="M13 15.8872V26.3822H26L13 15.8872Z" fill="#1DAEB3"/>
<path d="M0.220028 10.4829L2.83398e-05 11.0999V11.2469C-0.00605015 13.1079 0.966054 14.8353 2.56003 15.7959L5.06003 17.3199L13 18.1999L14.973 16.2049L13 10.4829H0.220028Z" fill="#22CAC8"/>
<path d="M13 10.4829V17.3189H20.938L23.438 15.7949C25.0324 14.8345 26.0053 13.1072 26 11.2459V11.0999L25.69 10.4839L13 10.4829Z" fill="#1DAEB3"/>
<path d="M5.1342 5.92285H5.1412V10.4829H5.1342V5.92285Z" fill="#E7FFFF"/>
<rect x="5.13379" y="10.4829" width="0.1" height="6.836" fill="#6AE1DB"/>
<path d="M0 10.8121C0.00470531 9.01896 0.985915 7.37083 2.56 6.51206L13 0.310059L14.973 6.11006L13 10.8121H0Z" fill="#1DAEB3"/>
<path d="M13 10.812V0.312012L23.44 6.51801C25.0142 7.37662 25.9955 9.02485 26 10.818L13 10.812Z" fill="#009AA8"/>
<path d="M4.95508 5.57178V17.0888L12.9951 21.9758L16.0951 14.4638L12.9951 5.57178H4.95508Z" fill="#E7FFFF"/>
<path d="M13 5.57178V21.9718L21.045 17.0868V5.57178H13Z" fill="#DAF2FE"/>
<path d="M19.131 3.93213L14.168 8.89513C13.6137 9.45051 13.2694 10.1811 13.194 10.9621L13 13.0001L19.448 9.15413L21.365 4.63513L19.131 3.93213Z" fill="#FDE01D"/>
<path d="M15.038 12.8058C15.8189 12.73 16.5494 12.3858 17.105 11.8318L22.068 6.86877L21.368 4.63477L13 12.9998L15.038 12.8058Z" fill="#FECA20"/>
<path d="M25.3934 0.606939C24.5816 -0.202313 23.2682 -0.202313 22.4564 0.606939L20.9004 2.15894L21.6454 4.34994L24.3844 2.93794L25.3934 0.606939Z" fill="#E9486F"/>
<path d="M21.6494 4.34993L23.8414 5.09493L25.3924 3.54393C26.2022 2.7324 26.2022 1.41847 25.3924 0.606934L21.6494 4.34993Z" fill="#DD2056"/>
<path d="M20.7429 2.16699L18.8809 4.02899L20.4229 5.57199L22.2849 5.25099V3.70899L20.7429 2.16699Z" fill="#FECA20"/>
<path d="M20.5996 5.42404L22.3726 3.64404L23.8406 5.11804L22.0676 6.89804L20.5996 5.42404Z" fill="#FAB600"/>
</svg>
