<svg width="29" height="29" viewBox="0 0 29 29" fill="none" xmlns="http://www.w3.org/2000/svg">
<path fill-rule="evenodd" clip-rule="evenodd" d="M1 6C0.447715 6 0 5.55228 0 5V1C0 0.447715 0.447715 0 1 0H5C5.55228 0 6 0.447715 6 1V5C6 5.55228 5.55228 6 5 6H1ZM4 2H2V4H4V2Z" fill="#A7A7A7"/>
<path fill-rule="evenodd" clip-rule="evenodd" d="M28 6H24C23.4477 6 23 5.55228 23 5V1C23 0.447715 23.4477 0 24 0H28C28.5523 0 29 0.447715 29 1V5C29 5.55228 28.5523 6 28 6ZM27 2H25V4H27V2Z" fill="#A7A7A7"/>
<path fill-rule="evenodd" clip-rule="evenodd" d="M1 23H5C5.55228 23 6 23.4477 6 24V28C6 28.5523 5.55228 29 5 29H1C0.447715 29 0 28.5523 0 28V24C0 23.4477 0.447715 23 1 23ZM2 27H4V25H2V27Z" fill="#A7A7A7"/>
<path d="M24 27H21V24C21 23.4477 20.5523 23 20 23C19.4477 23 19 23.4477 19 24V28C19 28.5523 19.4477 29 20 29H24C24.5523 29 25 28.5523 25 28C25 27.4477 24.5523 27 24 27Z" fill="#A7A7A7"/>
<path d="M29 22C29 21.4477 28.5523 21 28 21C27.4477 21 27 21.4477 27 22V28C27 28.5523 27.4477 29 28 29C28.5523 29 29 28.5523 29 28V22Z" fill="#A7A7A7"/>
<path d="M29 18C29 17.4477 28.5523 17 28 17H24C23.4477 17 23 17.4477 23 18V24C23 24.5523 23.4477 25 24 25C24.5523 25 25 24.5523 25 24V19H28C28.5523 19 29 18.5523 29 18Z" fill="#A7A7A7"/>
<path d="M20 21C20.5523 21 21 20.5523 21 20V18C21 17.4477 20.5523 17 20 17H14C13.4477 17 13 17.4477 13 18C13 18.5523 13.4477 19 14 19H19V20C19 20.5523 19.4477 21 20 21Z" fill="#A7A7A7"/>
<path d="M9 25H11C11.5523 25 12 24.5523 12 24C12 23.4477 11.5523 23 11 23H9C8.44772 23 8 23.4477 8 24C8 24.5523 8.44772 25 9 25Z" fill="#A7A7A7"/>
<path d="M15 21C14.4477 21 14 21.4477 14 22V27H9C8.44772 27 8 27.4477 8 28C8 28.5523 8.44772 29 9 29H15C15.5523 29 16 28.5523 16 28V22C16 21.4477 15.5523 21 15 21Z" fill="#A7A7A7"/>
<path d="M1 17C0.447715 17 0 17.4477 0 18V20C0 20.5523 0.447715 21 1 21H9C9.55229 21 10 20.5523 10 20V18C10 17.4477 9.55229 17 9 17C8.44771 17 8 17.4477 8 18V19H2V18C2 17.4477 1.55228 17 1 17Z" fill="#A7A7A7"/>
<path d="M9 2H18V5C18 5.55228 18.4477 6 19 6C19.5523 6 20 5.55228 20 5V1C20 0.447715 19.5523 0 19 0H9C8.44772 0 8 0.447715 8 1C8 1.55228 8.44772 2 9 2Z" fill="#A7A7A7"/>
<path d="M9 6H15C15.5523 6 16 5.55228 16 5C16 4.44772 15.5523 4 15 4H9C8.44772 4 8 4.44772 8 5C8 5.55228 8.44772 6 9 6Z" fill="#A7A7A7"/>
<path d="M24 10C24.5523 10 25 9.55228 25 9C25 8.44772 24.5523 8 24 8H18C17.4477 8 17 8.44772 17 9C17 9.55228 17.4477 10 18 10H24Z" fill="#A7A7A7"/>
<path d="M29 14V12V9C29 8.44772 28.5363 8 27.9643 8C27.3923 8 26.9286 8.44772 26.9286 9V12H14.5V9C14.5 8.44772 14.0363 8 13.4643 8C12.8923 8 12.4286 8.44772 12.4286 9V12H2.07143V10H9.32143C9.89344 10 10.3571 9.55228 10.3571 9C10.3571 8.44772 9.89344 8 9.32143 8H1.03571C0.463705 8 0 8.44772 0 9V12C0 12 0 14 0 14H29Z" fill="#A7A7A7"/>
</svg>
