<?xml version="1.0" encoding="UTF-8"?>
<svg width="28px" height="28px" viewBox="0 0 28 28" version="1.1" xmlns="http://www.w3.org/2000/svg" xmlns:xlink="http://www.w3.org/1999/xlink">
    <title>Share</title>
    <defs>
        <rect id="path-1" x="0" y="0" width="28" height="28"></rect>
    </defs>
    <g id="Page-1" stroke="none" stroke-width="1" fill="none" fill-rule="evenodd">
        <g id="Share">
            <mask id="mask-2" fill="white">
                <use xlink:href="#path-1"></use>
            </mask>
            <g id="Rectangle"></g>
            <g mask="url(#mask-2)" fill="#000000" fill-rule="nonzero" id="send">
                <path d="M27.76,0.241 C27.5466679,0.0273426722 27.2331822,-0.0517970976 26.944,0.035 L1.849,7.564 C0.75113133,7.88899118 -0.00121775801,8.89865951 0.00131964767,10.0436173 C0.0038699156,11.1885752 0.760698063,12.1948904 1.86,12.515 L12.46,15.543 L15.488,26.143 C15.8081096,27.2423019 16.8144248,27.9991301 17.9593827,28.0016804 C19.1043405,28.0042178 20.1140088,27.2518687 20.439,26.154 L27.968,1.054 C28.0530937,0.765363448 27.9732561,0.453305985 27.76,0.241 Z M1.64099283,10.048 C1.63936812,9.62629641 1.91649448,9.25421352 2.321,9.135 L24.3,2.541 L12.883,13.958 L2.311,10.937 C1.91499184,10.8223858 1.64207308,10.4602593 1.64099283,10.048 L1.64099283,10.048 Z M18.865,25.68 C18.7456834,26.0848626 18.3730733,26.362078 17.951,26.3600116 C17.5391115,26.3584836 17.1775101,26.0856537 17.063,25.69 L14.043,15.118 L25.459,3.7 L18.865,25.68 Z"></path>
            </g>
        </g>
    </g>
</svg>