<svg width="26" height="16" viewBox="0 0 26 16" fill="none" xmlns="http://www.w3.org/2000/svg">
<path fill-rule="evenodd" clip-rule="evenodd" d="M13.1083 0C19.9273 0 25.2653 7.205 25.4893 7.512C25.7023 7.80286 25.7023 8.19814 25.4893 8.489C25.2653 8.795 19.9273 16 13.1083 16C6.28934 16 0.951339 8.795 0.727339 8.488C0.515366 8.19683 0.515366 7.80217 0.727339 7.511C0.951339 7.205 6.29034 0 13.1083 0ZM2.44834 8C3.73534 9.564 8.08534 14.346 13.1083 14.346C18.1313 14.346 22.4823 9.566 23.7683 8.002C22.4803 6.437 18.1303 1.656 13.1083 1.656C8.08634 1.656 3.73434 6.435 2.44834 8Z" fill="#B2B2B2"/>
<path fill-rule="evenodd" clip-rule="evenodd" d="M7.92483 7.99992C7.91835 5.96969 9.13635 4.13577 11.0102 3.35435C12.884 2.57292 15.0441 2.99811 16.482 4.43141C17.9199 5.86471 18.352 8.02343 17.5765 9.89974C16.8011 11.7761 14.9711 12.9999 12.9408 12.9999C10.1764 13.001 7.93255 10.7644 7.92483 7.99992ZM9.59683 7.99992C9.59238 9.35343 10.4043 10.5761 11.6535 11.0972C12.9027 11.6183 14.3428 11.3349 15.3015 10.3794C16.2601 9.42387 16.5483 7.9847 16.0313 6.73378C15.5144 5.48286 14.2944 4.66693 12.9408 4.66692C11.099 4.66746 9.60479 6.15809 9.59983 7.99992H9.59683Z" fill="#B2B2B2"/>
</svg>
