<svg width="29" height="29" viewBox="0 0 29 29" fill="none" xmlns="http://www.w3.org/2000/svg">
<rect y="13.5938" width="29" height="1.8125" rx="0.90625" fill="white"/>
<path fill-rule="evenodd" clip-rule="evenodd" d="M0 0H0.90625H3.625H4.53125H6.34375C6.84426 0 7.25 0.405742 7.25 0.90625C7.25 1.40676 6.84426 1.8125 6.34375 1.8125H4.53125H3.625H1.8125V6.34375C1.8125 6.84426 1.40676 7.25 0.90625 7.25C0.405742 7.25 0 6.84426 0 6.34375V1.8125V0.90625V0Z" fill="white"/>
<path fill-rule="evenodd" clip-rule="evenodd" d="M0 29H0.90625H3.625H4.53125H6.34375C6.84426 29 7.25 28.5943 7.25 28.0938C7.25 27.5932 6.84426 27.1875 6.34375 27.1875H4.53125H3.625H1.8125V22.6562C1.8125 22.1557 1.40676 21.75 0.90625 21.75C0.405742 21.75 0 22.1557 0 22.6562V27.1875V28.0938V29Z" fill="white"/>
<path fill-rule="evenodd" clip-rule="evenodd" d="M29 0H28.0938H25.375H24.4688H22.6562C22.1557 0 21.75 0.405742 21.75 0.90625C21.75 1.40676 22.1557 1.8125 22.6562 1.8125H24.4688H25.375H27.1875V6.34375C27.1875 6.84426 27.5932 7.25 28.0938 7.25C28.5943 7.25 29 6.84426 29 6.34375V1.8125V0.90625V0Z" fill="white"/>
<path fill-rule="evenodd" clip-rule="evenodd" d="M29 29H28.0938H25.375H24.4688H22.6562C22.1557 29 21.75 28.5943 21.75 28.0938C21.75 27.5932 22.1557 27.1875 22.6562 27.1875H24.4688H25.375H27.1875V22.6562C27.1875 22.1557 27.5932 21.75 28.0938 21.75C28.5943 21.75 29 22.1557 29 22.6562V27.1875V28.0938V29Z" fill="white"/>
</svg>
