<?xml version="1.0" encoding="UTF-8"?>
<svg width="28px" height="28px" viewBox="0 0 28 28" version="1.1" xmlns="http://www.w3.org/2000/svg" xmlns:xlink="http://www.w3.org/1999/xlink">
    <title>Save</title>
    <defs>
        <rect id="path-1" x="0" y="0" width="28" height="28"></rect>
    </defs>
    <g id="Page-1" stroke="none" stroke-width="1" fill="none" fill-rule="evenodd">
        <g id="Save">
            <mask id="mask-2" fill="white">
                <use xlink:href="#path-1"></use>
            </mask>
            <g id="Rectangle"></g>
            <g mask="url(#mask-2)" fill="#000000" fill-rule="nonzero" id="bookmark_2_">
                <g transform="translate(3.000000, 0.000000)">
                    <path d="M21.908,0 L0.82,0 C0.367126505,0 -7.3095979e-08,0.367126505 -7.3095979e-08,0.82 L-7.3095979e-08,27.18 C-7.3095979e-08,27.5117662 0.199648635,27.8109266 0.506152859,27.9379069 C0.812657083,28.0648872 1.16547566,27.994664 1.4,27.76 L11.364,17.8 L21.328,27.764 C21.5625243,27.998664 21.9153429,28.0688872 22.2218471,27.9419069 C22.5283514,27.8149266 22.7280001,27.5157662 22.7280001,27.184 L22.7280001,0.82 C22.7280001,0.602522478 22.6416074,0.39395227 22.4878276,0.240172439 C22.3340477,0.0863926091 22.1254775,0 21.908,0 Z M21.088,25.2 L11.945,16.057 C11.7912062,15.9031147 11.582562,15.8166551 11.365,15.8166551 C11.147438,15.8166551 10.9387938,15.9031147 10.785,16.057 L1.641,25.2 L1.641,1.641 L21.087,1.641 L21.088,25.2 Z"></path>
                </g>
            </g>
        </g>
    </g>
</svg>