<svg width="37" height="42" viewBox="0 0 37 42" fill="none" xmlns="http://www.w3.org/2000/svg">
<path fill-rule="evenodd" clip-rule="evenodd" d="M27.3399 13.0246C28.0291 12.3354 28.4556 11.3832 28.4556 10.3311C28.4556 9.27959 28.029 8.32725 27.3395 7.63789C26.6501 6.94848 25.6977 6.52197 24.6461 6.52197C23.5946 6.52197 22.6423 6.94853 21.9529 7.63792C21.2635 8.32731 20.8369 9.27964 20.8369 10.3311C20.8369 11.3832 21.2633 12.3353 21.9525 13.0245C22.642 13.714 23.5944 14.1403 24.6461 14.1403C25.6978 14.1403 26.6504 13.714 27.3399 13.0246ZM26.9622 10.3311C26.9622 10.9709 26.703 11.5498 26.284 11.9687L26.284 11.9687C25.8649 12.3878 25.2857 12.6469 24.6461 12.6469C24.0066 12.6469 23.4275 12.3878 23.0083 11.9687C22.5895 11.5498 22.3303 10.9709 22.3303 10.3311C22.3303 9.69184 22.5896 9.11285 23.0087 8.69376C23.4278 8.27467 24.0068 8.01534 24.6461 8.01534C25.2855 8.01534 25.8646 8.27465 26.2837 8.69374C26.7028 9.11285 26.9622 9.69184 26.9622 10.3311Z" fill="#212121"/>
<path fill-rule="evenodd" clip-rule="evenodd" d="M32.2076 24.3987L30.5976 16.8833L30.5976 16.8832C30.4177 16.0432 29.9354 15.4067 29.3159 14.9604C28.623 14.4613 27.7531 14.2093 26.9633 14.1866L26.9429 14.1837H26.9327C26.9312 14.1837 26.4441 14.1868 26.0046 14.2704H26.0017C25.586 14.3502 25.2086 14.533 25.0984 14.5895L25.0981 14.5889C24.5266 14.8663 23.9675 15.3018 23.55 15.8463C23.1851 16.3222 22.9244 16.8857 22.8477 17.5087C22.8322 17.5631 22.8169 17.6206 22.8035 17.716L22.8027 17.7159C22.69 18.5082 22.5785 19.1518 22.4371 19.6436C22.3241 20.0362 22.2052 20.3 22.0632 20.429C21.9061 20.572 21.6033 20.6841 21.1273 20.7701C20.5606 20.8726 19.7834 20.921 18.7633 20.921C18.3927 20.921 18.0448 21.0186 17.7422 21.1889C17.5926 21.2731 17.4547 21.3748 17.331 21.491C16.9461 21.3978 16.6284 21.2964 16.3705 21.1844C16.083 21.0596 15.884 20.927 15.7585 20.7813C15.5868 20.5829 15.4586 20.2557 15.3436 19.7963C15.2081 19.255 15.1027 18.5648 14.9825 17.7174C14.9693 17.6229 14.9535 17.5648 14.9374 17.5079C14.86 16.8841 14.5991 16.3204 14.2342 15.8446C13.8168 15.3003 13.2583 14.8655 12.6872 14.5889L12.6869 14.5894C12.5769 14.5326 12.1999 14.349 11.7835 14.2693H11.7806C11.3409 14.1855 10.854 14.1824 10.8526 14.1824H10.8423L10.8219 14.1853C10.032 14.208 9.16224 14.46 8.46946 14.9591C7.8499 15.4054 7.36757 16.042 7.18761 16.8819L5.57769 24.3973C5.55454 24.5051 5.53709 24.6152 5.52516 24.7271C5.51403 24.8312 5.50865 24.9422 5.50879 25.0593C5.50954 25.5662 5.6338 26.0407 5.84945 26.4691C6.0215 26.811 6.25165 27.1231 6.52277 27.3982L6.51541 38.6726H6.51249C6.51249 39.3857 6.80222 40.0323 7.27075 40.5016C7.73882 40.9703 8.3861 41.2607 9.10172 41.2616V41.2645H9.10305C9.81603 41.2645 10.4623 40.9746 10.931 40.5062C11.3998 40.0377 11.69 39.3902 11.6907 38.6752L11.6957 28.1667C12.0197 27.9841 12.3171 27.7522 12.5692 27.4679C12.9097 27.0838 13.1638 26.6114 13.2851 26.0453L13.6287 24.4416C13.9971 24.6899 14.4158 24.9085 14.8947 25.1009C15.831 25.4769 17.0032 25.7522 18.4938 25.9564H18.4996C18.5631 25.9646 18.6094 25.97 18.6332 25.9717C18.69 25.9758 18.7389 25.9781 18.7775 25.9781C19.2186 25.9781 19.6353 25.8379 19.9797 25.5954C20.1856 25.4504 20.3654 25.2676 20.5087 25.0552C21.5033 24.98 22.3373 24.8301 23.0441 24.5924C23.4287 24.4631 23.7755 24.3083 24.0895 24.1263L24.5002 26.0462C24.6223 26.6129 24.8765 27.0855 25.217 27.4696C25.4688 27.7536 25.7659 27.9854 26.0896 28.168L26.0943 38.6766C26.0952 39.3916 26.3856 40.0386 26.8542 40.5065C27.3233 40.9748 27.9697 41.2645 28.6822 41.2645H28.6835C29.3969 41.2645 30.0442 40.9735 30.5144 40.5029C30.9831 40.034 31.2728 39.3872 31.2728 38.674H31.2699L31.2634 27.3986C31.6147 27.0425 31.8968 26.6245 32.0732 26.1608C32.2785 25.6212 32.3414 25.0256 32.2076 24.3987ZM29.1393 17.1924L30.7493 24.7078L30.7493 24.7078C30.8193 25.0359 30.7864 25.3476 30.679 25.6299C30.5524 25.9629 30.3236 26.2623 30.0353 26.5084L29.7755 26.7301L29.7757 27.0742L29.7823 38.6739H29.7794C29.7794 38.9791 29.6568 39.2545 29.4586 39.4529C29.2621 39.6495 28.9883 39.7711 28.6835 39.7711H28.6822C28.3776 39.7711 28.1025 39.6486 27.9042 39.4506C27.7054 39.2522 27.5822 38.9784 27.5818 38.6766L27.5769 27.7008L27.5766 27.1964L27.1073 27.0095C26.8085 26.8905 26.5375 26.7165 26.3311 26.4837C26.1554 26.2854 26.0233 26.0378 25.9585 25.737L25.2996 22.6567L25.004 21.2749L24.0309 22.298C23.6644 22.6832 23.1905 22.9725 22.5715 23.1807C21.8987 23.407 21.0575 23.5396 20.0072 23.5947L19.5136 23.6207L19.3452 24.0877C19.303 24.2046 19.2239 24.3046 19.1222 24.3762C19.0245 24.4449 18.9051 24.4847 18.7775 24.4847C18.7557 24.4847 18.7431 24.4845 18.7382 24.4841L18.692 24.4809L18.6921 24.4805C17.3269 24.2935 16.27 24.0481 15.4489 23.7183C14.687 23.4123 14.137 23.0346 13.7314 22.561L12.7521 21.4172L12.4364 22.8906L11.8268 25.7361C11.7624 26.0367 11.6306 26.284 11.455 26.482C11.2485 26.7149 10.9772 26.889 10.678 27.0081L10.2087 27.195L10.2084 27.6994L10.2032 38.6752C10.2029 38.9775 10.0798 39.2517 9.88106 39.4503C9.68277 39.6485 9.40781 39.7711 9.10307 39.7711H9.10174V39.774C8.79931 39.7736 8.52521 39.6504 8.32662 39.4516C8.12844 39.2531 8.00589 38.9777 8.00589 38.6726H8.00297L8.01054 27.0742L8.01079 26.7303L7.75094 26.5084C7.51139 26.3037 7.31286 26.0633 7.17947 25.7983C7.06353 25.568 6.99673 25.3187 6.99634 25.0593C6.99629 25.0095 6.99973 24.9513 7.00687 24.8847C7.0128 24.829 7.0225 24.7696 7.03603 24.7065L8.64595 17.1911C8.74056 16.7495 9.00162 16.4094 9.33864 16.1666C9.77429 15.8528 10.3298 15.692 10.8424 15.6735V15.6758H10.8526C10.8536 15.6758 11.2121 15.6779 11.5037 15.733L11.5035 15.7335C11.7725 15.785 12.0012 15.9097 12.0074 15.9131L12.0076 15.9131L12.0397 15.9306C12.4141 16.112 12.7791 16.3954 13.0501 16.7488C13.2745 17.0413 13.4307 17.3769 13.465 17.7321L13.4855 17.8546C13.4954 17.8917 13.4974 17.8986 13.4989 17.9041L13.4993 17.9051C13.5018 17.914 13.503 17.9134 13.5039 17.9129C13.5048 17.9124 13.5053 17.9121 13.5067 17.9216C13.6346 18.8237 13.7475 19.561 13.8969 20.158C14.0669 20.837 14.2901 21.3596 14.6327 21.7555C14.9024 22.0686 15.2767 22.3303 15.7813 22.5494C16.2253 22.7422 16.7799 22.9045 17.4676 23.0442L17.9776 23.1479L18.2493 22.7059C18.3051 22.6152 18.3816 22.5404 18.4714 22.4898C18.5565 22.4419 18.656 22.4144 18.7633 22.4144C19.8507 22.4144 20.7134 22.3567 21.3899 22.2343C22.1573 22.0956 22.7015 21.8639 23.0665 21.5315C23.4312 21.2004 23.6826 20.7107 23.8721 20.0519C24.0331 19.4922 24.1562 18.7862 24.2786 17.9259V17.9201C24.2801 17.9093 24.2807 17.9098 24.2817 17.9106C24.2827 17.9113 24.284 17.9124 24.2868 17.9026C24.2909 17.8882 24.2927 17.8824 24.2942 17.8778C24.2957 17.873 24.2968 17.8695 24.2997 17.8585L24.3202 17.7331C24.354 17.3781 24.51 17.0428 24.7341 16.7505C25.0056 16.3965 25.371 16.1125 25.7456 15.9306L25.7777 15.9131L25.7778 15.9131C25.7835 15.91 26.0115 15.7864 26.2817 15.7346L26.2816 15.7341C26.5726 15.6792 26.9316 15.6771 26.9327 15.6771H26.9429V15.6748C27.4554 15.6933 28.011 15.8541 28.4467 16.1679C28.7837 16.4107 29.0447 16.7508 29.1393 17.1924Z" fill="#484848"/>
<path fill-rule="evenodd" clip-rule="evenodd" d="M15.1729 13.0246C15.8621 12.3354 16.2886 11.3832 16.2886 10.3311C16.2886 9.27959 15.862 8.32725 15.1725 7.63789C14.4831 6.94848 13.5307 6.52197 12.4791 6.52197C11.4276 6.52197 10.4753 6.94853 9.78587 7.63792C9.09648 8.32731 8.66992 9.27964 8.66992 10.3311C8.66992 11.3832 9.09634 12.3353 9.78551 13.0245C10.475 13.714 11.4275 14.1403 12.4791 14.1403C13.5308 14.1403 14.4834 13.714 15.1729 13.0246ZM14.7952 10.3311C14.7952 10.9709 14.536 11.5498 14.117 11.9687L14.1171 11.9687C13.6979 12.3878 13.1187 12.6469 12.4791 12.6469C11.8396 12.6469 11.2605 12.3878 10.8414 11.9687C10.4225 11.5498 10.1633 10.9709 10.1633 10.3311C10.1633 9.69184 10.4226 9.11285 10.8417 8.69376C11.2608 8.27467 11.8398 8.01534 12.4791 8.01534C13.1185 8.01534 13.6976 8.27465 14.1167 8.69374C14.5358 9.11285 14.7952 9.69184 14.7952 10.3311Z" fill="#484848"/>
<path d="M17.7298 21.5803C18.5659 21.7127 19.2805 21.9541 19.8126 22.3588C20.4216 22.822 20.7753 23.4598 20.7887 24.3299L19.3011 24.3475C19.2956 23.9861 19.1554 23.7264 18.9143 23.543C18.5963 23.3011 18.1043 23.1465 17.4965 23.0503L17.7298 21.5803L17.7298 21.5803Z" fill="#484848"/>
</svg>
