<svg width="32" height="32" viewBox="0 0 32 32" fill="none" xmlns="http://www.w3.org/2000/svg">
<g clip-path="url(#clip0_3461_308)">
<path d="M31.5 16C31.5 24.5604 24.5604 31.5 16 31.5C7.43959 31.5 0.5 24.5604 0.5 16C0.5 7.43959 7.43959 0.5 16 0.5C24.5604 0.5 31.5 7.43959 31.5 16Z" stroke="#E8E8EA"></path>
<path d="M16 7.25C20.8246 7.25 24.75 11.1754 24.75 16C24.75 20.8246 20.8246 24.75 16 24.75C11.1754 24.75 7.25 20.8246 7.25 16C7.25 11.1754 11.1754 7.25 16 7.25ZM16 6C10.4771 6 6 10.4771 6 16C6 21.5229 10.4771 26 16 26C21.5229 26 26 21.5229 26 16C26 10.4771 21.5229 6 16 6Z" fill="black"></path>
<path d="M16 7.25C17.0162 7.25 18.0687 8.08542 18.8879 9.54167C19.8471 11.2467 20.375 13.54 20.375 16C20.375 18.46 19.8471 20.7533 18.8879 22.4583C18.0687 23.9146 17.0162 24.75 16 24.75C14.9837 24.75 13.9313 23.9146 13.1121 22.4583C12.1529 20.7533 11.625 18.46 11.625 16C11.625 13.54 12.1529 11.2467 13.1121 9.54167C13.9313 8.08542 14.9837 7.25 16 7.25ZM16 6C12.8933 6 10.375 10.4771 10.375 16C10.375 21.5229 12.8933 26 16 26C19.1067 26 21.625 21.5229 21.625 16C21.625 10.4771 19.1067 6 16 6Z" fill="black"></path>
<path d="M16.625 6H15.375V26H16.625V6Z" fill="black"></path><path d="M16.0002 12.8751C12.9064 12.8751 9.98057 12.0997 7.97266 10.7476L8.67099 9.71094C10.4777 10.9272 13.1489 11.6251 16.0002 11.6251C18.8485 11.6251 21.5185 10.9284 23.3252 9.71344L24.0227 10.7509C22.0152 12.1009 19.091 12.8751 16.0002 12.8751Z" fill="black"></path>
<path d="M23.3243 22.3521C21.5177 21.1354 18.8464 20.4375 15.9952 20.4375C13.1464 20.4375 10.4768 21.1346 8.67016 22.3496L7.97266 21.3121C9.97974 19.9621 12.9043 19.1875 15.9952 19.1875C19.0889 19.1875 22.0147 19.9629 24.0227 21.315L23.3243 22.3521Z" fill="black"></path>
<path d="M26 15.375H6V16.625H26V15.375Z" fill="black"></path></g><defs><clipPath id="clip0_3461_308"><rect width="32" height="32" fill="white"></rect></clipPath></defs></svg>