<svg width="23" height="23" viewBox="0 0 23 23" fill="none" xmlns="http://www.w3.org/2000/svg">
<path fill-rule="evenodd" clip-rule="evenodd" d="M11.4975 0.012207C5.16194 0.012207 0.0288086 5.15792 0.0288086 11.5C0.0288086 17.8421 5.16194 22.9879 11.4975 22.9879C17.8331 22.9879 22.9709 17.8421 22.9709 11.5C22.9709 5.15792 17.8331 0.012207 11.4975 0.012207ZM11.2586 22.2827C7.13509 22.2827 4.56484 19.3933 4.52639 19.3547C5.19123 18.9635 7.932 18.4323 8.57277 18.0268C9.28092 17.5777 9.53625 15.8247 9.53625 15.1342C9.53625 14.4436 7.89373 11.2143 7.74315 12.0184C7.60425 12.7609 6.7953 9.95755 6.7953 9.34428C6.7953 8.731 7.27704 8.86146 7.27704 8.86146C7.27704 8.86146 6.90132 8.11773 6.90132 6.93467C6.90132 4.23522 8.9485 2.1106 11.757 2.1106C14.5653 2.1106 16.1261 4.44294 16.1261 6.93467C16.1261 8.11773 15.9479 8.86146 15.9479 8.86146C15.9479 8.86146 16.4296 8.731 16.4296 9.34428C16.4296 9.95755 15.9121 12.3713 15.6329 12.0169C14.9006 11.0889 13.6885 14.4666 13.6885 15.1342C13.6885 15.8017 13.9438 17.5776 14.652 18.0268C15.283 18.4277 17.9613 19.3288 18.6694 19.72C18.6692 19.7633 15.3772 22.2827 11.2586 22.2827Z" fill="black"/>
</svg>
