<svg width="32" height="32" viewBox="0 0 32 32" fill="none" xmlns="http://www.w3.org/2000/svg">
<g clip-path="url(#clip0_3461_305)">
<path d="M31.5 16C31.5 24.5604 24.5604 31.5 16 31.5C7.43959 31.5 0.5 24.5604 0.5 16C0.5 7.43959 7.43959 0.5 16 0.5C24.5604 0.5 31.5 7.43959 31.5 16Z" stroke="#E8E8EA"></path>
<path d="M23.2752 10.5453C23.2752 10.5453 21.1939 8.91406 18.7314 8.72656L18.5127 9.17031C20.7377 9.71406 21.7564 10.4953 22.8252 11.4516C20.9877 10.5141 19.1689 9.63281 16.0064 9.63281C12.8439 9.63281 11.0252 10.5141 9.1877 11.4516C10.2564 10.4953 11.4689 9.62656 13.5002 9.17031L13.2814 8.72656C10.7002 8.97031 8.7377 10.5453 8.7377 10.5453C8.7377 10.5453 6.4127 13.9203 6.0127 20.5453C8.35645 23.2516 11.9189 23.2703 11.9189 23.2703L12.6627 22.2766C11.4002 21.8391 9.96895 21.0516 8.7377 19.6328C10.2064 20.7453 12.4314 21.9078 16.0127 21.9078C19.5939 21.9078 21.8127 20.7516 23.2877 19.6328C22.0564 21.0516 20.6252 21.8391 19.3627 22.2766L20.1064 23.2703C20.1064 23.2703 23.6689 23.2516 26.0127 20.5453C25.6002 13.9203 23.2752 10.5453 23.2752 10.5453ZM13.0439 18.7266C12.1627 18.7266 11.4502 17.9141 11.4502 16.9078C11.4502 15.9016 12.1627 15.0891 13.0439 15.0891C13.9252 15.0891 14.6377 15.9016 14.6377 16.9078C14.6377 17.9141 13.9252 18.7266 13.0439 18.7266ZM18.9564 18.7266C18.0752 18.7266 17.3627 17.9141 17.3627 16.9078C17.3627 15.9016 18.0752 15.0891 18.9564 15.0891C19.8377 15.0891 20.5502 15.9016 20.5502 16.9078C20.5502 17.9141 19.8314 18.7266 18.9564 18.7266Z" fill="black"></path>
</g><defs><clipPath id="clip0_3461_305"><rect width="32" height="32" fill="white"></rect></clipPath></defs></svg>