<svg width="20" height="20" fill="#008fff" xmlns="http://www.w3.org/2000/svg"><path fill-rule="evenodd" clip-rule="evenodd" d="M11 2c-5 0-9 4-9 9s4 9 9 9 9-4 9-9-4-9-9-9Zm5.75 14.667-.5.5-.083.083-.25.25-.75.5-.084.083H15c-.25.167-.583.25-.833.417-.084 0-.167.083-.334.083-.166.084-.333.167-.583.167-.167.083-.333.083-.5.083-.083 0-.25.084-.333.084-.167 0-.417.083-.584.083h-.166c-.25 0-.417.083-.667.083h-.917c-.166 0-.25 0-.416-.083-.167 0-.417-.083-.584-.083-.083 0-.166 0-.25-.084-1-.333-1.833-.75-2.666-1.333a8.05 8.05 0 0 1-3.25-6.5C2.917 6.5 6.5 2.917 11 2.917c1.083 0 2.167.25 3.167.666 2.916 1.25 4.916 4.084 4.916 7.417a7.742 7.742 0 0 1-1 3.833s0 .084-.083.084c-.083.166-.25.416-.333.583 0 .083-.084.083-.084.167-.083.166-.25.333-.333.5l-.25.25c-.083 0-.167.166-.25.25Z"></path><g clip-path="url(#icon-about-sidebar_svg__a)"><path d="M10.77 9.044c-.314 0-.63.315-.63.63v4.2c0 .42.316.734.63.734.316 0 .736-.315.736-.735V9.675c0-.315-.315-.63-.735-.63ZM10.77 8.204a.63.63 0 1 0 0-1.26.63.63 0 0 0 0 1.26Z"></path></g><defs><clipPath id="icon-about-sidebar_svg__a"><path fill="currentColor" transform="translate(10.14 6.944)" d="M0 0h1.365v7.664H0z"></path></clipPath></defs></svg>