<svg width="23" height="22" viewBox="0 0 23 22" fill="none" xmlns="http://www.w3.org/2000/svg">
<path fill-rule="evenodd" clip-rule="evenodd" d="M21.5895 2.1626H0.506185H0.0478516V2.62393V20.8179C0.0478516 21.1495 0.176758 21.4378 0.391602 21.6541C0.606445 21.8703 0.892904 22.0001 1.22233 22.0001H20.8734C21.2028 22.0001 21.4893 21.8703 21.7041 21.6541C21.9189 21.4378 22.0479 21.1495 22.0479 20.8179V2.62393V2.1626H21.5895ZM0.964518 3.08521H21.1312V20.8178C21.1312 20.8899 21.1025 20.962 21.0596 21.0053C21.0023 21.0485 20.945 21.0773 20.8734 21.0773H1.22233C1.15072 21.0773 1.0791 21.0485 1.03613 21.0053C0.993164 20.9476 0.964518 20.8899 0.964518 20.8178V3.08521Z" fill="#3995FF"/>
<path d="M5.31836 0.461337C5.31836 0.201835 5.51888 0 5.77669 0C6.03451 0 6.23503 0.201835 6.23503 0.461337V5.07471C6.23503 5.33421 6.03451 5.53604 5.77669 5.53604C5.51888 5.53604 5.31836 5.33421 5.31836 5.07471V0.461337Z" fill="#3995FF"/>
<path d="M0.505859 7.2373H21.5892V8.15998H0.505859V7.2373Z" fill="#3995FF"/>
<path d="M10.5898 0.461337C10.5898 0.201835 10.7904 0 11.0482 0C11.306 0 11.5065 0.201835 11.5065 0.461337V5.07471C11.5065 5.33421 11.306 5.53604 11.0482 5.53604C10.7904 5.53604 10.5898 5.33421 10.5898 5.07471V0.461337Z" fill="#3995FF"/>
<path d="M15.8604 0.461337C15.8604 0.201835 16.0609 0 16.3187 0C16.5765 0 16.777 0.201835 16.777 0.461337V5.07471C16.777 5.33421 16.5765 5.53604 16.3187 5.53604C16.0609 5.53604 15.8604 5.33421 15.8604 5.07471V0.461337Z" fill="#3995FF"/>
<path fill-rule="evenodd" clip-rule="evenodd" d="M10.7329 18.8428V17.848H10.7042H6.57921C6.69379 17.6606 6.83702 17.4732 7.0089 17.2858C7.18077 17.0984 7.58182 16.7379 8.1977 16.2189C8.94249 15.599 9.47244 15.0944 9.78754 14.734C10.1026 14.3736 10.3318 14.0276 10.475 13.696C10.604 13.3788 10.6756 13.0328 10.6756 12.7013C10.6756 12.0381 10.4464 11.4758 9.97374 11.0289C9.51541 10.582 8.87088 10.3513 8.06879 10.3513C7.28103 10.3513 6.6365 10.5532 6.16385 10.9712C5.69119 11.3893 5.41906 11.9948 5.34744 12.7878L6.40734 12.9031C6.42166 12.3841 6.56489 11.966 6.86567 11.6632C7.16645 11.3605 7.55317 11.2163 8.05447 11.2163C8.52713 11.2163 8.91385 11.3461 9.2003 11.6344C9.50109 11.9083 9.64432 12.2543 9.64432 12.6724C9.64432 13.0761 9.47244 13.4942 9.15734 13.9267C8.84223 14.3592 8.22635 14.9647 7.30968 15.7144C6.72244 16.2045 6.27843 16.6226 5.96333 16.9975C5.66254 17.3723 5.43338 17.7471 5.29015 18.122C5.20421 18.3526 5.16124 18.5977 5.17557 18.8428H10.7329ZM17.2638 18.8428V17.848H17.2352H13.1102C13.2248 17.6606 13.368 17.4732 13.5399 17.2858C13.7118 17.0984 14.1128 16.7379 14.7287 16.2189C15.4735 15.599 16.0034 15.0944 16.3185 14.734C16.6336 14.3736 16.8628 14.0276 17.006 13.696C17.1349 13.3788 17.2066 13.0328 17.2066 12.7013C17.2066 12.0381 16.9774 11.4758 16.5047 11.0289C16.0464 10.582 15.4019 10.3513 14.5998 10.3513C13.812 10.3513 13.1675 10.5532 12.6948 10.9712C12.2222 11.3893 11.95 11.9948 11.8784 12.7878L12.9383 12.9031C12.9526 12.3841 13.0959 11.966 13.3967 11.6632C13.6974 11.3605 14.0842 11.2163 14.5855 11.2163C15.0581 11.2163 15.4448 11.3461 15.7313 11.6344C16.0321 11.9083 16.1753 12.2543 16.1753 12.6724C16.1753 13.0761 16.0034 13.4942 15.6883 13.9267C15.3732 14.3592 14.7573 14.9647 13.8407 15.7144C13.2534 16.2045 12.8094 16.6226 12.4943 16.9975C12.1935 17.3723 11.9644 17.7471 11.8211 18.122C11.7352 18.3526 11.6922 18.5977 11.7066 18.8428H17.2638Z" fill="#3995FF"/>
</svg>
