<svg width="32" height="32" viewBox="0 0 32 32" fill="none" xmlns="http://www.w3.org/2000/svg">
<g clip-path="url(#clip0_3463_378)">
<path d="M14.8386 31.5011C7.16437 30.8864 0.721068 24.4515 0.5 16.4505V15.6017C0.739749 6.92056 8.30341 0.0897541 16.8119 0.519199C24.7204 0.924608 31.2848 7.49939 31.5 15.6014V16.4382C31.285 24.3941 24.9491 30.8805 17.2363 31.5011H14.8386Z" stroke="#E8E8EA"></path>
<path d="M16 12.4703C14.0473 12.4703 12.4643 14.0506 12.4643 16C12.4643 17.9494 14.0473 19.5297 16 19.5297C17.9527 19.5297 19.5356 17.9494 19.5356 16C19.5356 14.0506 17.9527 12.4703 16 12.4703Z" fill="black"></path>
<path fill-rule="evenodd" clip-rule="evenodd" d="M10.3098 6.31391C14.061 5.89536 17.939 5.89536 21.6902 6.31391C23.7554 6.54434 25.4212 8.16885 25.6636 10.2379C26.1121 14.0662 26.1121 17.9338 25.6636 21.7621C25.4212 23.8311 23.7554 25.4557 21.6902 25.6861C17.939 26.1046 14.061 26.1046 10.3098 25.6861C8.24456 25.4557 6.57878 23.8311 6.33639 21.7621C5.88787 17.9338 5.88787 14.0662 6.33639 10.2379C6.57878 8.16885 8.24456 6.54434 10.3098 6.31391ZM21.4394 9.48362C20.8386 9.48362 20.3516 9.96987 20.3516 10.5697C20.3516 11.1695 20.8386 11.6557 21.4394 11.6557C22.0403 11.6557 22.5273 11.1695 22.5273 10.5697C22.5273 9.96987 22.0403 9.48362 21.4394 9.48362ZM10.8325 16C10.8325 13.1509 13.1461 10.8412 16 10.8412C18.8539 10.8412 21.1675 13.1509 21.1675 16C21.1675 18.8491 18.8539 21.1588 16 21.1588C13.1461 21.1588 10.8325 18.8491 10.8325 16Z" fill="black"></path></g><defs><clipPath id="clip0_3463_378"><rect width="32" height="32" fill="white"></rect></clipPath></defs></svg>
