<svg xmlns="http://www.w3.org/2000/svg" width="13" height="18" fill="none"><path fill="#fff" d="M6.5 11.143c-.774 0-1.432-.271-1.973-.813a2.687 2.687 0 0 1-.813-1.973V2.786c0-.774.271-1.432.813-1.974A2.686 2.686 0 0 1 6.5 0c.774 0 1.432.27 1.973.813.542.541.813 1.199.813 1.973v5.571c0 .774-.271 1.432-.813 1.973-.541.542-1.2.813-1.973.813Zm-.929 6.5v-2.856c-1.61-.216-2.94-.936-3.992-2.158C.526 11.406 0 9.982 0 8.357h1.857c0 1.285.453 2.38 1.359 3.285.905.905 2 1.358 3.284 1.358 1.285 0 2.38-.453 3.285-1.358.905-.905 1.358-2 1.358-3.285H13c0 1.625-.526 3.049-1.579 4.272-1.052 1.222-2.383 1.942-3.992 2.159v2.855H5.57Z"/></svg>