<svg width="32" height="32" viewBox="0 0 32 32" fill="none" xmlns="http://www.w3.org/2000/svg"><g clip-path="url(#clip0_3461_296)">
<path d="M31.5 16C31.5 24.5604 24.5604 31.5 16 31.5C7.43959 31.5 0.5 24.5604 0.5 16C0.5 7.43959 7.43959 0.5 16 0.5C24.5604 0.5 31.5 7.43959 31.5 16Z" stroke="#E8E8EA"></path>
<path d="M26.25 10.0453C25.5142 10.3718 24.7237 10.5923 23.893 10.6913C24.7405 10.1836 25.3905 9.37934 25.6973 8.42134C24.9045 8.89159 24.0262 9.23309 23.0917 9.41709C22.3432 8.61959 21.2768 8.12109 20.097 8.12109C17.8308 8.12109 15.9935 9.95834 15.9935 12.2241C15.9935 12.5458 16.03 12.8588 16.1 13.1593C12.6895 12.9881 9.66625 11.3546 7.6425 8.87234C7.28925 9.47809 7.08675 10.1831 7.08675 10.9351C7.08675 12.3586 7.81125 13.6146 8.91225 14.3503C8.23975 14.3291 7.60675 14.1443 7.05375 13.8368C7.05325 13.8541 7.05325 13.8713 7.05325 13.8886C7.05325 15.8771 8.4675 17.5346 10.3448 17.9118C10.0003 18.0056 9.638 18.0556 9.26375 18.0556C8.99925 18.0556 8.74225 18.0298 8.49175 17.9818C9.014 19.6121 10.5293 20.7988 12.3247 20.8316C10.9205 21.9318 9.15125 22.5876 7.22875 22.5876C6.8975 22.5876 6.57075 22.5686 6.25 22.5303C8.06575 23.6946 10.223 24.3738 12.54 24.3738C20.087 24.3738 24.2143 18.1213 24.2143 12.6993C24.2143 12.5216 24.2097 12.3443 24.202 12.1686C25.0045 11.5908 25.6998 10.8681 26.25 10.0453Z" fill="black"></path>
</g><defs><clipPath id="clip0_3461_296"><rect width="32" height="32" fill="white"></rect></clipPath></defs></svg>